<svg width="67" height="18" viewBox="0 0 67 18" fill="none" xmlns="http://www.w3.org/2000/svg">
<path d="M11.9937 0H8.56693L0 17.1429H3.42677L10.2803 3.42857L17.1339 17.1429H20.5714L11.9937 0Z" fill="#E3E3E3"/>
<path d="M29.1429 13.7143C28.2857 13.7143 27.4286 12.8571 27.4286 12V5.14286C27.4286 4.28571 28.2857 3.42857 29.1429 3.42857H41.1429L42.8571 0H29.1429C25.7143 0 24 1.71429 24 5.14286V12C24 15.4286 25.7143 17.1429 29.1429 17.1429H41.1429L42.8571 13.7143H29.1429Z" fill="#E3E3E3"/>
<path d="M46.2859 13.7143V17.1429H65.143L66.851 13.7143H46.2859ZM61.7145 10.2857L63.4287 6.85714H46.2859L46.2859 10.2857H61.7145ZM46.2859 0V3.42857H65.143L66.851 0H46.2859Z" fill="#E3E3E3"/>
</svg>
