<svg width="30" height="20" viewBox="0 0 30 20" fill="none" xmlns="http://www.w3.org/2000/svg">
<path fill-rule="evenodd" clip-rule="evenodd" d="M14.6168 5.63478C14.8181 5.63478 15.0195 5.64113 15.2208 5.65383C16.9662 5.7258 18.6903 6.1047 20.3008 6.77783C22.0377 7.50175 23.6161 8.55378 24.9482 9.87039C26.1989 11.1066 27.2162 12.5608 27.9444 14.1547C28.7004 15.8079 29.133 17.5944 29.2186 19.4063L29.2294 19.6074V13.9642L29.2186 13.7631C29.133 11.9512 28.7004 10.1646 27.9444 8.51144C27.2162 6.91753 26.1989 5.46333 24.9482 4.22715C23.6161 2.91053 22.0355 1.8585 20.3008 1.13458C18.5039 0.385248 16.5657 0 14.6168 0C12.6636 0 10.7211 0.385248 8.92429 1.13881C7.18955 1.86485 5.61329 2.91688 4.28118 4.23138C2.94906 5.548 1.88466 7.10592 1.15221 8.81837C0.389782 10.5964 0 12.5163 0 14.4468V19.999C0.0107083 18.1003 0.402632 16.2122 1.15221 14.4616C1.8868 12.7492 2.95121 11.1912 4.28118 9.87463C5.61329 8.55801 7.18955 7.5081 8.92429 6.78206C10.537 6.1047 12.2653 5.7258 14.0129 5.65383C14.2142 5.64113 14.4155 5.63478 14.6168 5.63478ZM12.4346 17.6008C12.1559 17.9122 11.9344 18.2851 11.7793 18.6928V18.6949C11.6151 19.1108 11.5375 19.539 11.5375 20V12.6467C11.5375 12.1857 11.6151 11.7473 11.7793 11.3293C11.9325 10.9113 12.1559 10.5487 12.4346 10.227C12.7243 9.91765 13.051 9.67179 13.4275 9.49969C13.8041 9.31734 14.199 9.23129 14.6143 9.23129C15.0296 9.23129 15.4338 9.31734 15.8103 9.49969C16.1776 9.66974 16.5154 9.91765 16.7941 10.227C17.0543 10.518 17.2758 10.8704 17.4308 11.2555C17.5527 11.5519 17.5993 11.6364 17.6228 11.7268C17.6477 11.8227 17.6467 11.9253 17.6819 12.2943L17.6911 12.3906V19.7644L17.6819 19.6681C17.6467 19.294 17.6477 19.1914 17.6229 19.0956C17.5994 19.0051 17.5528 18.9206 17.4308 18.6191C17.2758 18.2441 17.0543 17.8897 16.7941 17.5906C16.5135 17.2914 16.1776 17.0353 15.8103 16.8632C15.4338 16.6911 15.0296 16.6051 14.6143 16.5948C14.199 16.6071 13.8041 16.6911 13.4275 16.8632C13.051 17.0333 12.7243 17.2914 12.4346 17.6008Z" fill="white"/>
</svg>
