<svg width="25" height="24" viewBox="0 0 25 24" fill="none" xmlns="http://www.w3.org/2000/svg">
<path d="M19.5364 12.466H16.0575C13.4483 12.466 12.1279 10.9885 12.1279 8.06494V5.05754C12.1279 3.9887 12.2537 2.4588 13.3644 1.6205C14.297 0.928904 15.6383 0.87651 17.6188 1.45284C20.2175 2.20731 22.3866 4.37642 23.1411 6.97515C23.7174 8.94516 23.665 10.2969 22.9734 11.219C22.1351 12.3403 20.6052 12.466 19.5364 12.466ZM15.303 2.62646C14.8734 2.62646 14.538 2.71029 14.318 2.87795C13.9093 3.18184 13.7102 3.89439 13.7102 5.05754V8.07542C13.7102 10.4227 14.6114 10.9047 16.0679 10.9047H19.5469C20.6996 10.9047 21.4121 10.7056 21.7265 10.2969C22.0932 9.8149 22.0618 8.85085 21.6531 7.43622C21.0454 5.3719 19.264 3.58003 17.1997 2.98274C16.4242 2.74173 15.7955 2.62646 15.303 2.62646Z" fill="white"/>
<path d="M11.9399 22.9424C11.3846 22.9424 10.8187 22.9005 10.2529 22.8062C5.96705 22.1146 2.47763 18.6357 1.78603 14.3498C0.895332 8.83802 4.44763 3.64055 9.88611 2.5298C10.3157 2.44597 10.7244 2.71842 10.8187 3.13757C10.9026 3.5672 10.6301 3.97587 10.211 4.07018C5.61078 5.01327 2.59289 9.41435 3.35784 14.0984C3.94465 17.724 6.88918 20.6685 10.5148 21.2554C15.2198 22.0098 19.6104 18.9815 20.543 14.3603C20.6268 13.9307 21.046 13.6582 21.4651 13.7421C21.8948 13.8259 22.1672 14.2451 22.0834 14.6642C21.0879 19.5578 16.8126 22.9424 11.9399 22.9424Z" fill="white"/>
</svg>
