<svg width="25" height="24" viewBox="0 0 25 24" fill="none" xmlns="http://www.w3.org/2000/svg" style="color:currentColor">
  <path d="M16.3506 17.125C15.5297 17.125 14.8431 16.45 14.8431 15.625C14.8431 14.8 15.4999 14.125 16.3208 14.125H16.3506C17.1715 14.125 17.8431 14.8 17.8431 15.625C17.8431 16.45 17.1715 17.125 16.3506 17.125Z" fill="currentColor"/>
  <path d="M9.35024 17.125C8.52934 17.125 7.84277 16.45 7.84277 15.625C7.84277 14.8 8.49949 14.125 9.32038 14.125H9.35024C10.1711 14.125 10.8428 14.8 10.8428 15.625C10.8428 16.45 10.1711 17.125 9.35024 17.125Z" fill="currentColor"/>
  <path d="M15.5928 23.875H9.59277C4.16277 23.875 1.84277 21.555 1.84277 16.125V14.125C1.84277 8.695 4.16277 6.375 9.59277 6.375H15.5928C21.0228 6.375 23.3428 8.695 23.3428 14.125V16.125C23.3428 21.555 21.0228 23.875 15.5928 23.875ZM9.59277 7.875C4.98277 7.875 3.34277 9.515 3.34277 14.125V16.125C3.34277 20.735 4.98277 22.375 9.59277 22.375H15.5928C20.2028 22.375 21.8428 20.735 21.8428 16.125V14.125C21.8428 9.515 20.2028 7.875 15.5928 7.875H9.59277Z" fill="currentColor"/>
  <path d="M12.5928 5.125C11.211 5.125 10.0928 4.00682 10.0928 2.625C10.0928 1.24318 11.211 0.125 12.5928 0.125C13.9746 0.125 15.0928 1.24318 15.0928 2.625C15.0928 4.00682 13.9746 5.125 12.5928 5.125ZM12.5928 1.48864C11.9655 1.48864 11.4564 1.99773 11.4564 2.625C11.4564 3.25227 11.9655 3.76136 12.5928 3.76136C13.22 3.76136 13.7291 3.25227 13.7291 2.625C13.7291 1.99773 13.22 1.48864 12.5928 1.48864Z" fill="currentColor"/>
  <path d="M12.0928 4.125H13.0928V7.125H12.0928V4.125Z" fill="currentColor"/>
</svg>
