<svg width="17" height="17" viewBox="0 0 17 17" fill="none" xmlns="http://www.w3.org/2000/svg">
<path d="M8.90933 15.9258C4.73551 15.9258 1.33997 12.5303 1.33997 8.35648C1.33997 4.18265 4.73551 0.787109 8.90933 0.787109C13.0832 0.787109 16.4787 4.18265 16.4787 8.35648C16.4776 12.5303 13.082 15.9258 8.90933 15.9258ZM8.90933 1.51005C5.13425 1.51005 2.0629 4.58139 2.0629 8.35648C2.0629 12.1316 5.13425 15.2029 8.90933 15.2029C12.6844 15.2029 15.7558 12.1316 15.7558 8.35648C15.7546 4.58139 12.6844 1.51005 8.90933 1.51005Z" fill="#00CC60"/>
<path fill-rule="evenodd" clip-rule="evenodd" d="M16.8787 8.35609V8.35619C16.8775 12.7508 13.303 16.3255 8.90931 16.3255C4.51457 16.3255 0.939941 12.7508 0.939941 8.35609C0.939941 3.96135 4.51457 0.386719 8.90931 0.386719C13.304 0.386719 16.8787 3.96135 16.8787 8.35609ZM8.90931 1.90965C5.35514 1.90965 2.46288 4.80192 2.46288 8.35609C2.46288 11.9103 5.35514 14.8025 8.90931 14.8025C12.4634 14.8025 15.3557 11.9103 15.3557 8.35621M8.90931 1.90965C12.4633 1.90965 15.3546 4.80177 15.3557 8.35609ZM1.33994 8.35609C1.33994 12.5299 4.73548 15.9255 8.90931 15.9255C13.082 15.9255 16.4775 12.5299 16.4787 8.35609C16.4787 4.18226 13.0831 0.786719 8.90931 0.786719C4.73548 0.786719 1.33994 4.18226 1.33994 8.35609ZM2.06288 8.35609C2.06288 4.581 5.13423 1.50965 8.90931 1.50965C12.6844 1.50965 15.7546 4.581 15.7557 8.35609C15.7557 12.1312 12.6844 15.2025 8.90931 15.2025C5.13423 15.2025 2.06288 12.1312 2.06288 8.35609Z" fill="#00CC60"/>
<path d="M7.13024 11.781L4.86542 9.51618C4.55365 9.20441 4.55365 8.69836 4.86542 8.38659C5.17718 8.07483 5.68324 8.07483 5.995 8.38659L7.44088 9.83246L11.9536 5.31976C12.2653 5.008 12.7714 5.008 13.0832 5.31976C13.3949 5.63153 13.3949 6.13758 13.0832 6.44935L7.75151 11.781C7.57982 11.9527 7.30194 11.9527 7.13024 11.781Z" fill="#00CC60"/>
</svg>
