<svg width="17" height="17" viewBox="0 0 17 17" fill="none" xmlns="http://www.w3.org/2000/svg">
<path d="M8.90933 1.71005C5.24471 1.71005 2.2629 4.69185 2.2629 8.35648C2.2629 12.0211 5.24471 15.0029 8.90933 15.0029C12.5739 15.0029 15.5557 12.0211 15.5558 8.35654L8.90933 1.71005ZM8.90933 1.71005C12.5739 1.71005 15.5546 4.69178 15.5558 8.35648L8.90933 1.71005ZM16.6787 8.35653V8.35648C16.6787 4.07219 13.1936 0.587109 8.90933 0.587109C4.62505 0.587109 1.13997 4.07219 1.13997 8.35648C1.13997 12.6408 4.62505 16.1258 8.90933 16.1258C13.1925 16.1258 16.6775 12.6407 16.6787 8.35653Z" fill="#00CC60" stroke="#00CC60" stroke-width="0.4"/>
<path d="M7.13024 11.781L4.86542 9.51618C4.55365 9.20441 4.55365 8.69836 4.86542 8.38659C5.17718 8.07483 5.68324 8.07483 5.995 8.38659L7.44088 9.83246L11.9536 5.31976C12.2653 5.008 12.7714 5.008 13.0832 5.31976C13.3949 5.63153 13.3949 6.13758 13.0832 6.44935L7.75151 11.781C7.57982 11.9527 7.30194 11.9527 7.13024 11.781Z" fill="#00CC60"/>
</svg>
