<svg width="25" height="24" viewBox="0 0 25 24" fill="none" xmlns="http://www.w3.org/2000/svg" style="color:currentColor">
  <path d="M12.5928 22.75H9.59277C4.16277 22.75 1.84277 20.43 1.84277 15V9C1.84277 3.57 4.16277 1.25 9.59277 1.25H15.5928C21.0228 1.25 23.3428 3.57 23.3428 9V12C23.3428 12.41 23.0028 12.75 22.5928 12.75C22.1828 12.75 21.8428 12.41 21.8428 12V9C21.8428 4.39 20.2028 2.75 15.5928 2.75H9.59277C4.98277 2.75 3.34277 4.39 3.34277 9V15C3.34277 19.61 4.98277 21.25 9.59277 21.25H12.5928C13.0028 21.25 13.3428 21.59 13.3428 22C13.3428 22.41 13.0028 22.75 12.5928 22.75Z" fill="currentColor"/>
  <path d="M16.963 22.7702C16.953 22.7702 16.953 22.7702 16.943 22.7702C15.933 22.7602 15.093 22.1403 14.793 21.1703L12.943 15.2203C12.693 14.4003 12.903 13.5203 13.513 12.9303C14.113 12.3403 14.983 12.1203 15.783 12.3703L21.743 14.2203C22.703 14.5203 23.333 15.3603 23.343 16.3703C23.353 17.3703 22.743 18.2203 21.783 18.5403L20.153 19.0903C19.923 19.1703 19.743 19.3403 19.673 19.5703L19.113 21.2103C18.803 22.1603 17.963 22.7702 16.963 22.7702ZM15.103 13.7702C14.833 13.7702 14.653 13.9203 14.573 13.9903C14.363 14.2003 14.293 14.4903 14.383 14.7803L16.233 20.7303C16.393 21.2403 16.813 21.2602 16.973 21.2702C17.113 21.2702 17.543 21.2303 17.703 20.7403L18.263 19.1003C18.483 18.4303 19.023 17.9003 19.693 17.6703L21.323 17.1203C21.823 16.9603 21.853 16.5203 21.853 16.3903C21.853 16.2603 21.813 15.8203 21.313 15.6603L15.353 13.8103C15.253 13.7803 15.173 13.7702 15.103 13.7702Z" fill="currentColor"/>
  <path fill-rule="evenodd" clip-rule="evenodd" d="M18.0928 9.75C18.0928 10.1642 17.757 10.5 17.3428 10.5H7.84277C7.42856 10.5 7.09277 10.1642 7.09277 9.75C7.09277 9.33579 7.42856 9 7.84277 9H17.3428C17.757 9 18.0928 9.33579 18.0928 9.75Z" fill="currentColor"/>
  <path fill-rule="evenodd" clip-rule="evenodd" d="M13.0928 14.25C13.0928 14.6642 12.757 15 12.3428 15H7.84277C7.42856 15 7.09277 14.6642 7.09277 14.25C7.09277 13.8358 7.42856 13.5 7.84277 13.5H12.3428C12.757 13.5 13.0928 13.8358 13.0928 14.25Z" fill="currentColor"/>
</svg>
