<svg width="64" height="64" viewBox="0 0 64 64" fill="none" xmlns="http://www.w3.org/2000/svg">
<path d="M7.98111 63.7275L56.7137 63.7275C60.6999 63.7275 63.9313 60.4961 63.9313 56.5099L63.9313 7.77731C63.9313 3.79111 60.6999 0.559654 56.7137 0.559654L7.98111 0.559654C3.9949 0.559654 0.763451 3.79111 0.763451 7.77731L0.763451 56.5099C0.763451 60.4961 3.99491 63.7275 7.98111 63.7275Z" fill="#929292"/>
<path d="M42.4894 39.8628L43.9633 30.1419H34.6636V23.8251C34.6636 21.1581 35.962 18.5962 40.1381 18.5962H44.3844V10.3142C44.3844 10.3142 40.5241 9.64746 36.8744 9.64746C29.189 9.64746 24.2058 14.2798 24.2058 22.7022V30.1068H15.6781V39.8277H24.2058V63.3051C25.9253 63.5858 27.68 63.7262 29.4698 63.7262C31.2595 63.7262 33.0142 63.5858 34.7337 63.3051V39.8277H42.5595L42.4894 39.8628Z" fill="white"/>
</svg>
