<svg width="22" height="22" viewBox="0 0 22 22" fill="none" xmlns="http://www.w3.org/2000/svg">
<circle cx="11" cy="11" r="11" fill="#4F6BE8"/>
<path d="M14.554 7.866H10.186L9.85 9.798C10.074 9.59267 10.3633 9.42467 10.718 9.294C11.0727 9.16333 11.446 9.098 11.838 9.098C12.7153 9.098 13.3593 9.336 13.77 9.812C14.19 10.288 14.4 10.904 14.4 11.66C14.4 11.884 14.3767 12.1453 14.33 12.444C14.134 13.536 13.672 14.404 12.944 15.048C12.216 15.6827 11.292 16 10.172 16C9.14533 16 8.35667 15.7667 7.806 15.3C7.25533 14.824 6.98 14.1893 6.98 13.396C6.98 13.312 6.98933 13.1673 7.008 12.962H9.332C9.34133 13.2513 9.43933 13.494 9.626 13.69C9.81267 13.8767 10.088 13.97 10.452 13.97C10.8907 13.97 11.2407 13.83 11.502 13.55C11.7633 13.27 11.9407 12.8967 12.034 12.43C12.0527 12.3367 12.062 12.2107 12.062 12.052C12.062 11.3613 11.6933 11.016 10.956 11.016C10.6387 11.016 10.3633 11.0953 10.13 11.254C9.906 11.4033 9.738 11.604 9.626 11.856H7.316L8.38 5.766H14.918L14.554 7.866Z" fill="white"/>
</svg>
