<svg width="62" height="42" viewBox="0 0 62 42" fill="none" xmlns="http://www.w3.org/2000/svg">
<path fill-rule="evenodd" clip-rule="evenodd" d="M30.6968 11.8336C31.1196 11.8336 31.5424 11.847 31.9652 11.8736C35.6308 12.0248 39.2514 12.8205 42.6337 14.2341C46.2813 15.7544 49.5961 17.9638 52.3937 20.7288C55.0204 23.3249 57.1568 26.3789 58.686 29.7263C60.2737 33.1981 61.1822 36.95 61.3621 40.7553L61.3846 41.1776V29.3262L61.3621 28.9039C61.1822 25.0986 60.2737 21.3467 58.686 17.8749C57.1568 14.5275 55.0204 11.4735 52.3937 8.87743C49.5961 6.11241 46.2768 3.90305 42.6337 2.38273C38.8601 0.80906 34.7897 0 30.6968 0C26.5949 0 22.5155 0.80906 18.7419 2.39162C15.0988 3.91638 11.7885 6.12574 8.9909 8.88632C6.19333 11.6514 3.95798 14.9232 2.41976 18.5195C0.818581 22.2536 0 26.2856 0 30.3398V42C0.0224885 38.0125 0.845568 34.0472 2.41976 30.3709C3.96247 26.7746 6.19783 23.5028 8.9909 20.7377C11.7885 17.9727 15.0988 15.7678 18.7419 14.243C22.1287 12.8205 25.7583 12.0248 29.4285 11.8736C29.8512 11.847 30.274 11.8336 30.6968 11.8336ZM26.1142 36.9603C25.5289 37.6144 25.0638 38.3975 24.7382 39.2537V39.258C24.3932 40.1315 24.2304 41.0308 24.2304 41.9989V26.5562C24.2304 25.5881 24.3932 24.6673 24.7382 23.7896C25.0599 22.9118 25.5289 22.1502 26.1142 21.4747C26.7227 20.8249 27.4088 20.3086 28.1996 19.9472C28.9903 19.5642 29.8198 19.3835 30.6919 19.3835C31.5641 19.3835 32.4129 19.5642 33.2037 19.9472C33.975 20.3043 34.6844 20.8249 35.2697 21.4747C35.8162 22.0857 36.2813 22.8257 36.6069 23.6346C36.8628 24.2571 36.9607 24.4344 37.0101 24.6243C37.0624 24.8257 37.0603 25.0412 37.1341 25.8162L37.1535 26.0184V41.5041L37.1341 41.3018C37.0603 40.5162 37.0624 40.3009 37.0102 40.0996C36.9608 39.9095 36.863 39.732 36.6069 39.0988C36.2813 38.3114 35.8162 37.567 35.2697 36.9388C34.6805 36.3106 33.975 35.7728 33.2037 35.4113C32.4129 35.0499 31.5641 34.8692 30.6919 34.8477C29.8198 34.8735 28.9903 35.0499 28.1996 35.4113C27.4088 35.7685 26.7227 36.3106 26.1142 36.9603Z" fill="#C4C4C4"/>
</svg>
