<svg width="16" height="15" viewBox="0 0 16 15" fill="none" xmlns="http://www.w3.org/2000/svg">
<path d="M9.65372 4.19595C9.74348 3.95522 9.84548 3.73082 9.91076 3.49826C9.97604 3.26162 10.0128 3.01274 10.0576 2.76794C10.2535 1.62553 9.69452 0.601439 8.65003 0.173036C8.25427 0.0098343 7.83811 -0.00648633 7.42194 0.00167373C7.09146 0.0098338 6.87114 0.234236 6.87114 0.560638C6.87114 1.05432 6.88338 1.54801 6.86706 2.04169C6.83442 3.24122 6.31218 4.17555 5.32481 4.84875C5.22689 4.91403 5.18609 4.97931 5.18609 5.10171C5.19017 7.54973 5.19425 9.99775 5.18201 12.4458C5.18201 12.6865 5.25137 12.8293 5.44721 12.968C5.81441 13.2291 6.18977 13.4658 6.64266 13.5474C6.73242 13.5637 6.82626 13.5719 6.91602 13.5719C8.81324 13.5719 10.7145 13.58 12.6117 13.5637C13.4522 13.5555 14.2519 12.9313 14.4437 12.1112C14.5946 11.4584 14.6762 10.7934 14.7823 10.1283C14.9537 9.04302 15.121 7.96181 15.2923 6.87652C15.3576 6.45628 15.4147 6.0442 15.2882 5.62396C15.0312 4.78347 14.2519 4.20411 13.3339 4.18779C12.7341 4.17963 12.1344 4.1837 11.5305 4.1837C10.9022 4.19594 10.282 4.19595 9.65372 4.19595Z" fill="white"/>
<path d="M3.8726 9.01955C3.8726 7.97098 3.8726 6.92242 3.8726 5.87385C3.8726 5.3108 3.48091 4.89464 2.91379 4.87832C2.38338 4.86608 1.85298 4.86608 1.32666 4.87832C0.763612 4.89056 0.36377 5.3108 0.36377 5.86977C0.36377 7.9669 0.36377 10.064 0.36377 12.1653C0.36377 12.7201 0.788093 13.1404 1.3389 13.1445C1.8489 13.1445 2.3589 13.1445 2.86483 13.1445C3.46051 13.1445 3.86852 12.7365 3.86852 12.1367C3.8726 11.0963 3.8726 10.06 3.8726 9.01955Z" fill="white"/>
<path d="M9.18809 4.00991L8.92238 4.69152H9.65395H9.65763H9.66131H9.66499H9.66867H9.67235H9.67603H9.67971H9.68339H9.68707H9.69075H9.69443H9.69811H9.70179H9.70547H9.70915H9.71283H9.71651H9.72018H9.72386H9.72754H9.73122H9.7349H9.73857H9.74225H9.74593H9.7496H9.75328H9.75696H9.76063H9.76431H9.76799H9.77166H9.77534H9.77901H9.78269H9.78636H9.79004H9.79371H9.79739H9.80106H9.80474H9.80841H9.81209H9.81576H9.81943H9.82311H9.82678H9.83045H9.83413H9.8378H9.84147H9.84514H9.84882H9.85249H9.85616H9.85983H9.8635H9.86718H9.87085H9.87452H9.87819H9.88186H9.88553H9.8892H9.89287H9.89654H9.90021H9.90388H9.90755H9.91122H9.91489H9.91856H9.92223H9.9259H9.92956H9.93323H9.9369H9.94057H9.94424H9.94791H9.95157H9.95524H9.95891H9.96258H9.96624H9.96991H9.97358H9.97724H9.98091H9.98458H9.98824H9.99191H9.99557H9.99924H10.0029H10.0066H10.0102H10.0139H10.0176H10.0212H10.0249H10.0286H10.0322H10.0359H10.0396H10.0432H10.0469H10.0505H10.0542H10.0579H10.0615H10.0652H10.0689H10.0725H10.0762H10.0798H10.0835H10.0872H10.0908H10.0945H10.0982H10.1018H10.1055H10.1091H10.1128H10.1165H10.1201H10.1238H10.1274H10.1311H10.1348H10.1384H10.1421H10.1457H10.1494H10.1531H10.1567H10.1604H10.164H10.1677H10.1714H10.175H10.1787H10.1823H10.186H10.1897H10.1933H10.197H10.2006H10.2043H10.2079H10.2116H10.2153H10.2189H10.2226H10.2262H10.2299H10.2335H10.2372H10.2409H10.2445H10.2482H10.2518H10.2555H10.2591H10.2628H10.2664H10.2701H10.2738H10.2774H10.2811H10.2847H10.2884H10.292H10.2957H10.2993H10.303H10.3067H10.3103H10.314H10.3176H10.3213H10.3249H10.3286H10.3322H10.3359H10.3395H10.3432H10.3468H10.3505H10.3541H10.3578H10.3615H10.3651H10.3688H10.3724H10.3761H10.3797H10.3834H10.387H10.3907H10.3943H10.398H10.4016H10.4053H10.4089H10.4126H10.4162H10.4199H10.4235H10.4272H10.4308H10.4345H10.4381H10.4418H10.4454H10.4491H10.4527H10.4564H10.46H10.4637H10.4673H10.471H10.4746H10.4783H10.4819H10.4856H10.4892H10.4929H10.4965H10.5002H10.5038H10.5075H10.5111H10.5148H10.5184H10.522H10.5257H10.5293H10.533H10.5366H10.5403H10.5439H10.5476H10.5512H10.5549H10.5585H10.5622H10.5658H10.5695H10.5731H10.5767H10.5804H10.584H10.5877H10.5913H10.595H10.5986H10.6023H10.6059H10.6096H10.6132H10.6169H10.6205H10.6241H10.6278H10.6314H10.6351H10.6387H10.6424H10.646H10.6497H10.6533H10.6569H10.6606H10.6642H10.6679H10.6715H10.6752H10.6788H10.6824H10.6861H10.6897H10.6934H10.697H10.7007H10.7043H10.708H10.7116H10.7152H10.7189H10.7225H10.7262H10.7298H10.7334H10.7371H10.7407H10.7444H10.748H10.7517H10.7553H10.7589H10.7626H10.7662H10.7699H10.7735H10.7772H10.7808H10.7844H10.7881H10.7917H10.7954H10.799H10.8026H10.8063H10.8099H10.8136H10.8172H10.8208H10.8245H10.8281H10.8318H10.8354H10.839H10.8427H10.8463H10.85H10.8536H10.8572H10.8609H10.8645H10.8682H10.8718H10.8754H10.8791H10.8827H10.8864H10.89H10.8936H10.8973H10.9009H10.9046H10.9082H10.9118H10.9155H10.9191H10.9228H10.9264H10.93H10.9337H10.9373H10.9409H10.9446H10.9482H10.9519H10.9555H10.9591H10.9628H10.9664H10.9701H10.9737H10.9773H10.981H10.9846H10.9882H10.9919H10.9955H10.9992H11.0028H11.0064H11.0101H11.0137H11.0173H11.021H11.0246H11.0283H11.0319H11.0355H11.0392H11.0428H11.0464H11.0501H11.0537H11.0573H11.061H11.0646H11.0683H11.0719H11.0755H11.0792H11.0828H11.0864H11.0901H11.0937H11.0974H11.101H11.1046H11.1083H11.1119H11.1155H11.1192H11.1228H11.1264H11.1301H11.1337H11.1373H11.141H11.1446H11.1483H11.1519H11.1555H11.1592H11.1628H11.1664H11.1701H11.1737H11.1773H11.181H11.1846H11.1882H11.1919H11.1955H11.1992H11.2028H11.2064H11.2101H11.2137H11.2173H11.221H11.2246H11.2282H11.2319H11.2355H11.2391H11.2428H11.2464H11.25H11.2537H11.2573H11.2609H11.2646H11.2682H11.2718H11.2755H11.2791H11.2828H11.2864H11.29H11.2937H11.2973H11.3009H11.3046H11.3082H11.3118H11.3155H11.3191H11.3227H11.3264H11.33H11.3336H11.3373H11.3409H11.3445H11.3482H11.3518H11.3554H11.3591H11.3627H11.3663H11.37H11.3736H11.3772H11.3809H11.3845H11.3881H11.3918H11.3954H11.399H11.4027H11.4063H11.41H11.4136H11.4172H11.4209H11.4245H11.4281H11.4318H11.4354H11.439H11.4427H11.4463H11.4499H11.4536H11.4572H11.4608H11.4645H11.4681H11.4717H11.4754H11.479H11.4826H11.4863H11.4899H11.4935H11.4972H11.5008H11.5044H11.5081H11.5117H11.5153H11.519H11.5226C11.6744 4.69152 11.8255 4.69126 11.9761 4.69101C12.4252 4.69024 12.8704 4.68949 13.3192 4.69555L13.3193 4.69555C14.0257 4.70497 14.6098 5.15068 14.8019 5.77701C14.8912 6.07486 14.8605 6.38247 14.791 6.80291L14.7905 6.80636C14.7049 7.3488 14.6202 7.89017 14.5357 8.43108L14.5354 8.43301C14.4507 8.97453 14.3662 9.5156 14.2806 10.0576C14.2497 10.2501 14.2219 10.4378 14.1946 10.6219C14.124 11.0977 14.0569 11.5503 13.9493 12.0035L13.9489 12.0052C13.811 12.5947 13.2156 13.0653 12.5995 13.0715C11.1791 13.0837 9.7572 13.0822 8.33363 13.0807C7.85864 13.0802 7.38346 13.0797 6.90809 13.0797C6.84746 13.0797 6.78358 13.0741 6.72417 13.0633L6.72339 13.0631C6.38744 13.0026 6.08939 12.8246 5.72904 12.5683L5.72828 12.5678C5.69858 12.5468 5.68515 12.5334 5.68004 12.5276C5.67803 12.5197 5.67414 12.4983 5.67407 12.4547C5.68614 10.0404 5.68234 7.62643 5.67833 5.21431C6.74968 4.45483 7.32276 3.38814 7.35894 2.06315L7.35897 2.06189C7.36641 1.76204 7.36493 1.44817 7.3635 1.14353C7.36258 0.947314 7.36168 0.754928 7.36319 0.572582L7.3632 0.572583V0.56845C7.3632 0.542613 7.36752 0.528277 7.3697 0.522637C7.37055 0.520429 7.37125 0.519072 7.37169 0.518334C7.37241 0.517895 7.37376 0.517184 7.37594 0.51631C7.3815 0.514086 7.39539 0.509758 7.42026 0.509447L7.42026 0.509459L7.42372 0.509392C7.83269 0.501451 8.15662 0.521495 8.45148 0.643088L8.45148 0.643091L8.45328 0.643823C9.26819 0.97618 9.71126 1.77166 9.55661 2.69298L9.55651 2.69355C9.55139 2.72428 9.54643 2.75433 9.54158 2.78377C9.50537 3.00336 9.47481 3.18872 9.42301 3.36544L9.4208 3.37298L9.41883 3.38059C9.38251 3.5207 9.32762 3.65843 9.25675 3.83627C9.2353 3.89008 9.21239 3.94757 9.18809 4.00991ZM5.67739 12.5241C5.67744 12.5241 5.67789 12.5247 5.67856 12.5258C5.67767 12.5247 5.67733 12.5241 5.67739 12.5241ZM5.68071 12.53C5.68108 12.5308 5.68123 12.5313 5.68121 12.5314L5.68071 12.53Z" stroke="#9C9C9C"/>
<path d="M1.34155 5.3782L1.34222 5.37819C1.86444 5.36614 2.3866 5.36613 2.90463 5.37815C3.19318 5.38696 3.37628 5.57416 3.37662 5.87301C3.37254 6.9221 3.37254 7.97102 3.37254 9.01882V9.01955V9.02565V9.03174V9.03784V9.04394V9.05003V9.05613V9.06222V9.06832V9.07441V9.08051V9.0866V9.0927V9.09879V9.10489V9.11098V9.11708V9.12317V9.12927V9.13536V9.14146V9.14755V9.15365V9.15974V9.16583V9.17193V9.17802V9.18411V9.19021V9.1963V9.2024V9.20849V9.21458V9.22068V9.22677V9.23286V9.23896V9.24505V9.25114V9.25723V9.26333V9.26942V9.27551V9.2816V9.2877V9.29379V9.29988V9.30597V9.31207V9.31816V9.32425V9.33034V9.33643V9.34253V9.34862V9.35471V9.3608V9.36689V9.37298V9.37907V9.38517V9.39126V9.39735V9.40344V9.40953V9.41562V9.42171V9.4278V9.43389V9.43998V9.44607V9.45216V9.45825V9.46434V9.47044V9.47653V9.48262V9.48871V9.4948V9.50089V9.50698V9.51306V9.51915V9.52524V9.53133V9.53742V9.54351V9.5496V9.55569V9.56178V9.56787V9.57396V9.58005V9.58614V9.59223V9.59832V9.6044V9.61049V9.61658V9.62267V9.62876V9.63485V9.64094V9.64703V9.65311V9.6592V9.66529V9.67138V9.67747V9.68355V9.68964V9.69573V9.70182V9.70791V9.71399V9.72008V9.72617V9.73226V9.73835V9.74443V9.75052V9.75661V9.7627V9.76878V9.77487V9.78096V9.78705V9.79313V9.79922V9.80531V9.81139V9.81748V9.82357V9.82966V9.83574V9.84183V9.84792V9.854V9.86009V9.86618V9.87226V9.87835V9.88444V9.89052V9.89661V9.9027V9.90878V9.91487V9.92095V9.92704V9.93313V9.93921V9.9453V9.95139V9.95747V9.96356V9.96964V9.97573V9.98182V9.9879V9.99399V10.0001V10.0062V10.0122V10.0183V10.0244V10.0305V10.0366V10.0427V10.0488V10.0548V10.0609V10.067V10.0731V10.0792V10.0853V10.0914V10.0974V10.1035V10.1096V10.1157V10.1218V10.1279V10.134V10.14V10.1461V10.1522V10.1583V10.1644V10.1705V10.1765V10.1826V10.1887V10.1948V10.2009V10.207V10.2131V10.2191V10.2252V10.2313V10.2374V10.2435V10.2496V10.2557V10.2617V10.2678V10.2739V10.28V10.2861V10.2922V10.2982V10.3043V10.3104V10.3165V10.3226V10.3287V10.3348V10.3408V10.3469V10.353V10.3591V10.3652V10.3713V10.3773V10.3834V10.3895V10.3956V10.4017V10.4078V10.4138V10.4199V10.426V10.4321V10.4382V10.4443V10.4504V10.4564V10.4625V10.4686V10.4747V10.4808V10.4869V10.4929V10.499V10.5051V10.5112V10.5173V10.5234V10.5294V10.5355V10.5416V10.5477V10.5538V10.5599V10.566V10.572V10.5781V10.5842V10.5903V10.5964V10.6025V10.6085V10.6146V10.6207V10.6268V10.6329V10.639V10.645V10.6511V10.6572V10.6633V10.6694V10.6755V10.6816V10.6876V10.6937V10.6998V10.7059V10.712V10.7181V10.7241V10.7302V10.7363V10.7424V10.7485V10.7546V10.7607V10.7667V10.7728V10.7789V10.785V10.7911V10.7972V10.8032V10.8093V10.8154V10.8215V10.8276V10.8337V10.8397V10.8458V10.8519V10.858V10.8641V10.8702V10.8763V10.8823V10.8884V10.8945V10.9006V10.9067V10.9128V10.9188V10.9249V10.931V10.9371V10.9432V10.9493V10.9554V10.9614V10.9675V10.9736V10.9797V10.9858V10.9919V10.998V11.004V11.0101V11.0162V11.0223V11.0284V11.0345V11.0405V11.0466V11.0527V11.0588V11.0649V11.071V11.0771V11.0831V11.0892V11.0953V11.1014V11.1075V11.1136V11.1197V11.1257V11.1318V11.1379V11.144V11.1501V11.1562V11.1623V11.1683V11.1744V11.1805V11.1866V11.1927V11.1988V11.2049V11.2109V11.217V11.2231V11.2292V11.2353V11.2414V11.2475V11.2536V11.2596V11.2657V11.2718V11.2779V11.284V11.2901V11.2962V11.3022V11.3083V11.3144V11.3205V11.3266V11.3327V11.3388V11.3449V11.3509V11.357V11.3631V11.3692V11.3753V11.3814V11.3875V11.3936V11.3996V11.4057V11.4118V11.4179V11.424V11.4301V11.4362V11.4423V11.4483V11.4544V11.4605V11.4666V11.4727V11.4788V11.4849V11.491V11.497V11.5031V11.5092V11.5153V11.5214V11.5275V11.5336V11.5397V11.5458V11.5518V11.5579V11.564V11.5701V11.5762V11.5823V11.5884V11.5945V11.6006V11.6066V11.6127V11.6188V11.6249V11.631V11.6371V11.6432V11.6493V11.6554V11.6615V11.6675V11.6736V11.6797V11.6858V11.6919V11.698V11.7041V11.7102V11.7163V11.7224V11.7284V11.7345V11.7406V11.7467V11.7528V11.7589V11.765V11.7711V11.7772V11.7833V11.7894V11.7954V11.8015V11.8076V11.8137V11.8198V11.8259V11.832V11.8381V11.8442V11.8503V11.8564V11.8625V11.8686V11.8746V11.8807V11.8868V11.8929V11.899V11.9051V11.9112V11.9173V11.9234V11.9295V11.9356V11.9417V11.9478V11.9539V11.9599V11.966V11.9721V11.9782V11.9843V11.9904V11.9965V12.0026V12.0087V12.0148V12.0209V12.027V12.0331V12.0392V12.0453V12.0514V12.0575V12.0635V12.0696V12.0757V12.0818V12.0879V12.094V12.1001V12.1062V12.1123V12.1184V12.1245V12.1306V12.1367C3.37254 12.3177 3.31258 12.4379 3.23951 12.5114C3.16673 12.5846 3.04821 12.6445 2.86886 12.6445H2.86587H2.86288H2.85989H2.8569H2.85392H2.85093H2.84794H2.84495H2.84196H2.83897H2.83599H2.833H2.83001H2.82702H2.82403H2.82104H2.81806H2.81507H2.81208H2.80909H2.8061H2.80311H2.80013H2.79714H2.79415H2.79116H2.78817H2.78519H2.7822H2.77921H2.77622H2.77323H2.77024H2.76726H2.76427H2.76128H2.75829H2.7553H2.75231H2.74933H2.74634H2.74335H2.74036H2.73737H2.73439H2.7314H2.72841H2.72542H2.72243H2.71945H2.71646H2.71347H2.71048H2.70749H2.70451H2.70152H2.69853H2.69554H2.69255H2.68957H2.68658H2.68359H2.6806H2.67761H2.67463H2.67164H2.66865H2.66566H2.66267H2.65969H2.6567H2.65371H2.65072H2.64773H2.64475H2.64176H2.63877H2.63578H2.6328H2.62981H2.62682H2.62383H2.62085H2.61786H2.61487H2.61188H2.60889H2.60591H2.60292H2.59993H2.59694H2.59396H2.59097H2.58798H2.58499H2.58201H2.57902H2.57603H2.57304H2.57006H2.56707H2.56408H2.56109H2.55811H2.55512H2.55213H2.54915H2.54616H2.54317H2.54018H2.5372H2.53421H2.53122H2.52824H2.52525H2.52226H2.51927H2.51629H2.5133H2.51031H2.50733H2.50434H2.50135H2.49837H2.49538H2.49239H2.4894H2.48642H2.48343H2.48044H2.47746H2.47447H2.47148H2.4685H2.46551H2.46252H2.45954H2.45655H2.45356H2.45058H2.44759H2.4446H2.44162H2.43863H2.43565H2.43266H2.42967H2.42669H2.4237H2.42071H2.41773H2.41474H2.41176H2.40877H2.40578H2.4028H2.39981H2.39682H2.39384H2.39085H2.38787H2.38488H2.3819H2.37891H2.37592H2.37294H2.36995H2.36697H2.36398H2.36099H2.35801H2.35502H2.35204H2.34905H2.34607H2.34308H2.3401H2.33711H2.33412H2.33114H2.32815H2.32517H2.32218H2.3192H2.31621H2.31323H2.31024H2.30726H2.30427H2.30129H2.2983H2.29532H2.29233H2.28935H2.28636H2.28338H2.28039H2.27741H2.27442H2.27144H2.26845H2.26547H2.26249H2.2595H2.25652H2.25353H2.25055H2.24756H2.24458H2.24159H2.23861H2.23563H2.23264H2.22966H2.22667H2.22369H2.22071H2.21772H2.21474H2.21175H2.20877H2.20579H2.2028H2.19982H2.19683H2.19385H2.19087H2.18788H2.1849H2.18192H2.17893H2.17595H2.17297H2.16998H2.167H2.16402H2.16103H2.15805H2.15507H2.15208H2.1491H2.14612H2.14314H2.14015H2.13717H2.13419H2.1312H2.12822H2.12524H2.12226H2.11927H2.11629H2.11331H2.11033H2.10734H2.10436H2.10138H2.0984H2.09541H2.09243H2.08945H2.08647H2.08349H2.0805H2.07752H2.07454H2.07156H2.06858H2.06559H2.06261H2.05963H2.05665H2.05367H2.05069H2.04771H2.04472H2.04174H2.03876H2.03578H2.0328H2.02982H2.02684H2.02386H2.02087H2.01789H2.01491H2.01193H2.00895H2.00597H2.00299H2.00001H1.99703H1.99405H1.99107H1.98809H1.98511H1.98213H1.97915H1.97617H1.97319H1.97021H1.96723H1.96425H1.96127H1.95829H1.95531H1.95233H1.94935H1.94637H1.94339H1.94041H1.93743H1.93445H1.93147H1.92849H1.92551H1.92253H1.91955H1.91657H1.9136H1.91062H1.90764H1.90466H1.90168H1.8987H1.89572H1.89274H1.88977H1.88679H1.88381H1.88083H1.87785H1.87487H1.8719H1.86892H1.86594H1.86296H1.85998H1.85701H1.85403H1.85105H1.84807H1.8451H1.84212H1.83914H1.83616H1.83319H1.83021H1.82723H1.82425H1.82128H1.8183H1.81532H1.81235H1.80937H1.80639H1.80342H1.80044H1.79746H1.79449H1.79151H1.78853H1.78556H1.78258H1.7796H1.77663H1.77365H1.77068H1.7677H1.76472H1.76175H1.75877H1.7558H1.75282H1.74985H1.74687H1.7439H1.74092H1.73794H1.73497H1.73199H1.72902H1.72604H1.72307H1.72009H1.71712H1.71415H1.71117H1.7082H1.70522H1.70225H1.69927H1.6963H1.69332H1.69035H1.68738H1.6844H1.68143H1.67845H1.67548H1.67251H1.66953H1.66656H1.66359H1.66061H1.65764H1.65467H1.65169H1.64872H1.64575H1.64277H1.6398H1.63683H1.63386H1.63088H1.62791H1.62494H1.62197H1.61899H1.61602H1.61305H1.61008H1.60711H1.60413H1.60116H1.59819H1.59522H1.59225H1.58927H1.5863H1.58333H1.58036H1.57739H1.57442H1.57145H1.56848H1.5655H1.56253H1.55956H1.55659H1.55362H1.55065H1.54768H1.54471H1.54174H1.53877H1.5358H1.53283H1.52986H1.52689H1.52392H1.52095H1.51798H1.51501H1.51204H1.50907H1.5061H1.50313H1.50016H1.4972H1.49423H1.49126H1.48829H1.48532H1.48235H1.47938H1.47641H1.47345H1.47048H1.46751H1.46454H1.46157H1.45861H1.45564H1.45267H1.4497H1.44674H1.44377H1.4408H1.43783H1.43487H1.4319H1.42893H1.42596H1.423H1.42003H1.41706H1.4141H1.41113H1.40816H1.4052H1.40223H1.39927H1.3963H1.39333H1.39037H1.3874H1.38444H1.38147H1.3785H1.37554H1.37257H1.36961H1.36664H1.36368H1.36071H1.35775H1.35478H1.35182H1.34885H1.34589H1.34293C1.06963 12.6445 0.867798 12.4454 0.867798 12.1653V12.153V12.1407V12.1284V12.1161V12.1038V12.0915V12.0792V12.067V12.0547V12.0424V12.0301V12.0178V12.0055V11.9932V11.9809V11.9686V11.9564V11.9441V11.9318V11.9195V11.9072V11.8949V11.8826V11.8703V11.8581V11.8458V11.8335V11.8212V11.8089V11.7966V11.7843V11.772V11.7598V11.7475V11.7352V11.7229V11.7106V11.6983V11.686V11.6737V11.6614V11.6492V11.6369V11.6246V11.6123V11.6V11.5877V11.5754V11.5631V11.5509V11.5386V11.5263V11.514V11.5017V11.4894V11.4771V11.4648V11.4526V11.4403V11.428V11.4157V11.4034V11.3911V11.3788V11.3665V11.3542V11.342V11.3297V11.3174V11.3051V11.2928V11.2805V11.2682V11.2559V11.2436V11.2314V11.2191V11.2068V11.1945V11.1822V11.1699V11.1576V11.1453V11.1331V11.1208V11.1085V11.0962V11.0839V11.0716V11.0593V11.047V11.0347V11.0225V11.0102V10.9979V10.9856V10.9733V10.961V10.9487V10.9364V10.9241V10.9119V10.8996V10.8873V10.875V10.8627V10.8504V10.8381V10.8258V10.8135V10.8013V10.789V10.7767V10.7644V10.7521V10.7398V10.7275V10.7152V10.7029V10.6907V10.6784V10.6661V10.6538V10.6415V10.6292V10.6169V10.6046V10.5923V10.5801V10.5678V10.5555V10.5432V10.5309V10.5186V10.5063V10.494V10.4817V10.4694V10.4572V10.4449V10.4326V10.4203V10.408V10.3957V10.3834V10.3711V10.3588V10.3465V10.3343V10.322V10.3097V10.2974V10.2851V10.2728V10.2605V10.2482V10.2359V10.2236V10.2114V10.1991V10.1868V10.1745V10.1622V10.1499V10.1376V10.1253V10.113V10.1007V10.0885V10.0762V10.0639V10.0516V10.0393V10.027V10.0147V10.0024V9.99013V9.97784V9.96555V9.95326V9.94096V9.92867V9.91638V9.90409V9.8918V9.87951V9.86722V9.85493V9.84264V9.83035V9.81805V9.80576V9.79347V9.78118V9.76889V9.7566V9.74431V9.73201V9.71972V9.70743V9.69514V9.68285V9.67056V9.65827V9.64597V9.63368V9.62139V9.6091V9.59681V9.58451V9.57222V9.55993V9.54764V9.53535V9.52305V9.51076V9.49847V9.48618V9.47389V9.46159V9.4493V9.43701V9.42472V9.41242V9.40013V9.38784V9.37555V9.36325V9.35096V9.33867V9.32637V9.31408V9.30179V9.2895V9.2772V9.26491V9.25262V9.24032V9.22803V9.21574V9.20344V9.19115V9.17886V9.16656V9.15427V9.14198V9.12968V9.11739V9.1051V9.0928V9.08051V9.06822V9.05592V9.04363V9.03134V9.01904V9.00675V8.99445V8.98216V8.96987V8.95757V8.94528V8.93298V8.92069V8.90839V8.8961V8.88381V8.87151V8.85922V8.84692V8.83463V8.82233V8.81004V8.79774V8.78545V8.77315V8.76086V8.74856V8.73627V8.72397V8.71168V8.69938V8.68709V8.67479V8.6625V8.6502V8.63791V8.62561V8.61332V8.60102V8.58873V8.57643V8.56413V8.55184V8.53954V8.52725V8.51495V8.50266V8.49036V8.47806V8.46577V8.45347V8.44117V8.42888V8.41658V8.40429V8.39199V8.37969V8.3674V8.3551V8.3428V8.33051V8.31821V8.30591V8.29362V8.28132V8.26902V8.25672V8.24443V8.23213V8.21983V8.20754V8.19524V8.18294V8.17064V8.15834V8.14605V8.13375V8.12145V8.10915V8.09686V8.08456V8.07226V8.05996V8.04766V8.03537V8.02307V8.01077V7.99847V7.98617V7.97387V7.96158V7.94928V7.93698V7.92468V7.91238V7.90008V7.88778V7.87548V7.86319V7.85089V7.83859V7.82629V7.81399V7.80169V7.78939V7.77709V7.76479V7.75249V7.74019V7.72789V7.71559V7.70329V7.69099V7.67869V7.66639V7.65409V7.64179V7.62949V7.61719V7.60489V7.59259V7.58029V7.56799V7.55569V7.54339V7.53109V7.51879V7.50648V7.49418V7.48188V7.46958V7.45728V7.44498V7.43268V7.42038V7.40807V7.39577V7.38347V7.37117V7.35887V7.34657V7.33426V7.32196V7.30966V7.29736V7.28505V7.27275V7.26045V7.24815V7.23585V7.22354V7.21124V7.19894V7.18663V7.17433V7.16203V7.14973V7.13742V7.12512V7.11282V7.10051V7.08821V7.07591V7.0636V7.0513V7.03899V7.02669V7.01439V7.00208V6.98978V6.97747V6.96517V6.95287V6.94056V6.92826V6.91595V6.90365V6.89134V6.87904V6.86673V6.85443V6.84212V6.82982V6.81751V6.80521V6.7929V6.7806V6.76829V6.75599V6.74368V6.73138V6.71907V6.70676V6.69446V6.68215V6.66985V6.65754V6.64523V6.63293V6.62062V6.60831V6.59601V6.5837V6.57139V6.55909V6.54678V6.53447V6.52217V6.50986V6.49755V6.48525V6.47294V6.46063V6.44832V6.43602V6.42371V6.4114V6.39909V6.38678V6.37448V6.36217V6.34986V6.33755V6.32524V6.31293V6.30063V6.28832V6.27601V6.2637V6.25139V6.23908V6.22677V6.21446V6.20215V6.18984V6.17753V6.16522V6.15292V6.14061V6.1283V6.11599V6.10368V6.09137V6.07906V6.06674V6.05443V6.04212V6.02981V6.0175V6.00519V5.99288V5.98057V5.96826V5.95595V5.94364V5.93133V5.91901V5.9067V5.89439V5.88208V5.86977C0.867798 5.57637 1.05665 5.3844 1.34155 5.3782Z" stroke="#9C9C9C"/>
</svg>
