<svg width="12" height="14" viewBox="0 0 12 14" fill="none" xmlns="http://www.w3.org/2000/svg">
<path fill-rule="evenodd" clip-rule="evenodd" d="M10.1818 11.4545V5.72758H8.27249C6.86668 5.72758 5.72704 4.58794 5.72704 3.18213V1.27273H2.54545C1.84255 1.27273 1.27273 1.84255 1.27273 2.54545V11.4545C1.27273 12.1575 1.84255 12.7273 2.54545 12.7273H8.90909C9.612 12.7273 10.1818 12.1575 10.1818 11.4545ZM6.99977 1.79967L9.65495 4.45486H8.27249C7.56959 4.45486 6.99977 3.88504 6.99977 3.18213V1.79967ZM2.54545 0C1.13964 0 0 1.13964 0 2.54545V11.4545C0 12.8604 1.13964 14 2.54545 14H8.90909C10.3149 14 11.4545 12.8604 11.4545 11.4545V5.50891C11.4545 4.83381 11.1864 4.18637 10.709 3.709L7.74555 0.745546C7.26818 0.268181 6.62073 0 5.94564 0H2.54545ZM3.1819 4.45486C2.83044 4.45486 2.54553 4.73977 2.54553 5.09122C2.54553 5.44267 2.83044 5.72758 3.1819 5.72758H3.81826C4.16971 5.72758 4.45462 5.44267 4.45462 5.09122C4.45462 4.73977 4.16971 4.45486 3.81826 4.45486H3.1819ZM2.54553 7.63605C2.54553 7.2846 2.83044 6.99969 3.1819 6.99969H8.2728C8.62426 6.99969 8.90917 7.2846 8.90917 7.63605C8.90917 7.98751 8.62426 8.27242 8.2728 8.27242H3.1819C2.83044 8.27242 2.54553 7.98751 2.54553 7.63605ZM3.1819 9.54545C2.83044 9.54545 2.54553 9.83036 2.54553 10.1818C2.54553 10.5333 2.83044 10.8182 3.1819 10.8182H8.2728C8.62426 10.8182 8.90917 10.5333 8.90917 10.1818C8.90917 9.83036 8.62426 9.54545 8.2728 9.54545H3.1819Z" fill="black"/>
</svg>
