<svg width="25" height="24" viewBox="0 0 25 24" fill="none" xmlns="http://www.w3.org/2000/svg" style="color:currentColor">
  <path d="M18.3828 22.75H6.80277C4.06277 22.75 1.84277 20.52 1.84277 17.78V10.37C1.84277 9.00997 2.68277 7.29997 3.76277 6.45997L9.15277 2.25997C10.7728 0.999974 13.3628 0.939974 15.0428 2.11997L21.2228 6.44997C22.4128 7.27997 23.3428 9.05997 23.3428 10.51V17.79C23.3428 20.52 21.1228 22.75 18.3828 22.75ZM10.0728 3.43997L4.68277 7.63997C3.97277 8.19997 3.34277 9.46997 3.34277 10.37V17.78C3.34277 19.69 4.89277 21.25 6.80277 21.25H18.3828C20.2928 21.25 21.8428 19.7 21.8428 17.79V10.51C21.8428 9.54997 21.1528 8.21997 20.3628 7.67997L14.1828 3.34997C13.0428 2.54997 11.1628 2.58997 10.0728 3.43997Z" fill="currentColor"/>
  <path fill-rule="evenodd" clip-rule="evenodd" d="M10.5928 15.75C10.4547 15.75 10.3428 15.8619 10.3428 16V20H8.84277V16C8.84277 15.0335 9.62628 14.25 10.5928 14.25H14.5928C15.5593 14.25 16.3428 15.0335 16.3428 16V20H14.8428V16C14.8428 15.8619 14.7308 15.75 14.5928 15.75H10.5928Z" fill="currentColor"/>
</svg>
