<svg width="65" height="64" viewBox="0 0 65 64" fill="none" xmlns="http://www.w3.org/2000/svg">
<path d="M56.8197 0.171875H8.08716C4.10096 0.171875 0.869507 3.40333 0.869507 7.38953V56.1221C0.869507 60.1083 4.10096 63.3398 8.08716 63.3398H56.8197C60.8059 63.3398 64.0374 60.1083 64.0374 56.1221V7.38953C64.0374 3.40333 60.8059 0.171875 56.8197 0.171875Z" fill="#929292"/>
<path d="M32.4533 11.6112C39.0157 11.6112 39.7878 11.6112 42.3847 11.7516C44.771 11.8569 46.0695 12.278 46.9468 12.5938C48.1049 13.05 48.912 13.5764 49.7543 14.4187C50.5965 15.2609 51.158 16.1031 51.5791 17.2261C51.93 18.1035 52.3161 19.4019 52.4214 21.7883C52.5266 24.3852 52.5617 25.1572 52.5617 31.7196C52.5617 38.2821 52.5617 39.0541 52.4214 41.651C52.3161 44.0374 51.895 45.3358 51.5791 46.2132C51.1229 47.3712 50.5965 48.1784 49.7543 49.0206C48.912 49.8629 48.0698 50.4244 46.9468 50.8455C46.0695 51.1964 44.771 51.5824 42.3847 51.6877C39.7878 51.793 39.0157 51.8281 32.4533 51.8281C25.8908 51.8281 25.1188 51.8281 22.5219 51.6877C20.1356 51.5824 18.8371 51.1613 17.9598 50.8455C16.8017 50.3893 15.9945 49.8629 15.1523 49.0206C14.3101 48.1784 13.7486 47.3362 13.3275 46.2132C12.9765 45.3358 12.5905 44.0374 12.4852 41.651C12.3799 39.0541 12.3448 38.2821 12.3448 31.7196C12.3448 25.1572 12.3448 24.3852 12.4852 21.7883C12.5905 19.4019 13.0116 18.1035 13.3275 17.2261C13.7837 16.0681 14.3101 15.2609 15.1523 14.4187C15.9945 13.5764 16.8368 13.0149 17.9598 12.5938C18.8371 12.2429 20.1356 11.8569 22.5219 11.7516C25.1188 11.6463 25.8908 11.6112 32.4533 11.6112ZM32.4533 7.18945C25.7856 7.18945 24.9433 7.18945 22.3113 7.32983C19.6793 7.43511 17.9247 7.85622 16.3455 8.4879C14.7312 9.11958 13.3625 9.96182 11.9939 11.3305C10.6253 12.6991 9.78303 14.0677 9.15136 15.682C8.55477 17.2612 8.13365 19.0159 7.99328 21.6479C7.888 24.2799 7.85291 25.087 7.85291 31.7898C7.85291 38.4927 7.85291 39.2998 7.99328 41.9318C8.09856 44.5638 8.51968 46.3185 9.15136 47.8976C9.78303 49.5119 10.6253 50.8806 11.9939 52.2492C13.3625 53.6178 14.7312 54.4601 16.3455 55.0918C17.9247 55.6884 19.6793 56.1095 22.3113 56.2498C24.9433 56.3551 25.7856 56.3902 32.4533 56.3902C39.121 56.3902 39.9632 56.3902 42.5952 56.2498C45.2272 56.1446 46.9819 55.7234 48.5611 55.0918C50.1754 54.4601 51.544 53.6178 52.9127 52.2492C54.2813 50.8806 55.1235 49.5119 55.7552 47.8976C56.3518 46.3185 56.7729 44.5638 56.9133 41.9318C57.0186 39.2998 57.0537 38.4576 57.0537 31.7898C57.0537 25.1221 57.0537 24.2799 56.9133 21.6479C56.808 19.0159 56.3869 17.2612 55.7552 15.682C55.1235 14.0677 54.2813 12.6991 52.9127 11.3305C51.544 9.96182 50.1754 9.11958 48.5611 8.4879C46.9819 7.89132 45.2272 7.4702 42.5952 7.32983C39.9632 7.22455 39.121 7.18945 32.4533 7.18945Z" fill="white"/>
<path d="M32.4535 19.1562C25.4699 19.1562 19.855 24.8063 19.855 31.7547C19.855 38.7032 25.505 44.3532 32.4535 44.3532C39.4019 44.3532 45.0519 38.7032 45.0519 31.7547C45.0519 24.8063 39.4019 19.1562 32.4535 19.1562ZM32.4535 39.9666C27.9264 39.9666 24.2767 36.3169 24.2767 31.7898C24.2767 27.2628 27.9264 23.6131 32.4535 23.6131C36.9805 23.6131 40.6302 27.2628 40.6302 31.7898C40.6302 36.3169 36.9805 39.9666 32.4535 39.9666Z" fill="white"/>
<path d="M45.5785 21.5783C47.2065 21.5783 48.5263 20.2585 48.5263 18.6305C48.5263 17.0024 47.2065 15.6826 45.5785 15.6826C43.9504 15.6826 42.6306 17.0024 42.6306 18.6305C42.6306 20.2585 43.9504 21.5783 45.5785 21.5783Z" fill="white"/>
</svg>
