<svg width="16" height="15" viewBox="0 0 16 15" fill="none" xmlns="http://www.w3.org/2000/svg">
<path d="M10.0179 10.3783C10.1076 10.619 10.2096 10.8434 10.2749 11.076C10.3402 11.3126 10.3769 11.5615 10.4218 11.8063C10.6176 12.9487 10.0587 13.9728 9.01417 14.4012C8.61841 14.5644 8.20224 14.5807 7.78608 14.5725C7.4556 14.5644 7.23528 14.34 7.23528 14.0136C7.23528 13.5199 7.24752 13.0262 7.2312 12.5325C7.19856 11.333 6.67631 10.3987 5.68894 9.72547C5.59102 9.66019 5.55022 9.59491 5.55022 9.47251C5.5543 7.02449 5.55838 4.57647 5.54614 2.12845C5.54614 1.88773 5.6155 1.74493 5.81134 1.60621C6.17855 1.34509 6.55391 1.10844 7.00679 1.02684C7.09655 1.01052 7.1904 1.00236 7.28016 1.00236C9.17737 1.00236 11.0787 0.994205 12.9759 1.01052C13.8164 1.01868 14.6161 1.64293 14.8078 2.46301C14.9588 3.11582 15.0404 3.78086 15.1465 4.44591C15.3178 5.5312 15.4851 6.61241 15.6565 7.69769C15.7217 8.11794 15.7789 8.53002 15.6524 8.95026C15.3953 9.79075 14.6161 10.3701 13.698 10.3864C13.0983 10.3946 12.4985 10.3905 11.8947 10.3905C11.2663 10.3783 10.6462 10.3783 10.0179 10.3783Z" fill="white"/>
<path d="M4.23624 5.55467C4.23624 6.60323 4.23624 7.6518 4.23624 8.70037C4.23624 9.26342 3.84456 9.67958 3.27744 9.6959C2.74703 9.70814 2.21663 9.70814 1.6903 9.6959C1.12726 9.68366 0.727417 9.26342 0.727417 8.70445C0.727417 6.60732 0.727417 4.51018 0.727417 2.40896C0.727417 1.85408 1.15174 1.43384 1.70254 1.42976C2.21255 1.42976 2.72255 1.42976 3.22848 1.42976C3.82416 1.42976 4.23216 1.83776 4.23216 2.43752C4.23624 3.47793 4.23624 4.51426 4.23624 5.55467Z" fill="white"/>
<path d="M9.55174 10.5643L9.28603 9.8827H10.0176H10.0213H10.025H10.0286H10.0323H10.036H10.0397H10.0434H10.047H10.0507H10.0544H10.0581H10.0618H10.0654H10.0691H10.0728H10.0765H10.0802H10.0838H10.0875H10.0912H10.0949H10.0985H10.1022H10.1059H10.1096H10.1133H10.1169H10.1206H10.1243H10.128H10.1316H10.1353H10.139H10.1427H10.1463H10.15H10.1537H10.1574H10.161H10.1647H10.1684H10.1721H10.1757H10.1794H10.1831H10.1868H10.1904H10.1941H10.1978H10.2014H10.2051H10.2088H10.2125H10.2161H10.2198H10.2235H10.2272H10.2308H10.2345H10.2382H10.2418H10.2455H10.2492H10.2528H10.2565H10.2602H10.2639H10.2675H10.2712H10.2749H10.2785H10.2822H10.2859H10.2895H10.2932H10.2969H10.3005H10.3042H10.3079H10.3116H10.3152H10.3189H10.3226H10.3262H10.3299H10.3336H10.3372H10.3409H10.3446H10.3482H10.3519H10.3556H10.3592H10.3629H10.3666H10.3702H10.3739H10.3775H10.3812H10.3849H10.3885H10.3922H10.3959H10.3995H10.4032H10.4069H10.4105H10.4142H10.4179H10.4215H10.4252H10.4288H10.4325H10.4362H10.4398H10.4435H10.4472H10.4508H10.4545H10.4581H10.4618H10.4655H10.4691H10.4728H10.4765H10.4801H10.4838H10.4874H10.4911H10.4948H10.4984H10.5021H10.5057H10.5094H10.5131H10.5167H10.5204H10.524H10.5277H10.5314H10.535H10.5387H10.5423H10.546H10.5496H10.5533H10.557H10.5606H10.5643H10.5679H10.5716H10.5753H10.5789H10.5826H10.5862H10.5899H10.5935H10.5972H10.6008H10.6045H10.6082H10.6118H10.6155H10.6191H10.6228H10.6264H10.6301H10.6338H10.6374H10.6411H10.6447H10.6484H10.652H10.6557H10.6593H10.663H10.6666H10.6703H10.674H10.6776H10.6813H10.6849H10.6886H10.6922H10.6959H10.6995H10.7032H10.7068H10.7105H10.7141H10.7178H10.7214H10.7251H10.7288H10.7324H10.7361H10.7397H10.7434H10.747H10.7507H10.7543H10.758H10.7616H10.7653H10.7689H10.7726H10.7762H10.7799H10.7835H10.7872H10.7908H10.7945H10.7981H10.8018H10.8054H10.8091H10.8127H10.8164H10.82H10.8237H10.8273H10.831H10.8346H10.8383H10.8419H10.8456H10.8492H10.8529H10.8565H10.8602H10.8638H10.8675H10.8711H10.8748H10.8784H10.882H10.8857H10.8893H10.893H10.8966H10.9003H10.9039H10.9076H10.9112H10.9149H10.9185H10.9222H10.9258H10.9295H10.9331H10.9368H10.9404H10.944H10.9477H10.9513H10.955H10.9586H10.9623H10.9659H10.9696H10.9732H10.9769H10.9805H10.9841H10.9878H10.9914H10.9951H10.9987H11.0024H11.006H11.0097H11.0133H11.0169H11.0206H11.0242H11.0279H11.0315H11.0352H11.0388H11.0425H11.0461H11.0497H11.0534H11.057H11.0607H11.0643H11.068H11.0716H11.0752H11.0789H11.0825H11.0862H11.0898H11.0935H11.0971H11.1007H11.1044H11.108H11.1117H11.1153H11.1189H11.1226H11.1262H11.1299H11.1335H11.1372H11.1408H11.1444H11.1481H11.1517H11.1554H11.159H11.1626H11.1663H11.1699H11.1736H11.1772H11.1809H11.1845H11.1881H11.1918H11.1954H11.1991H11.2027H11.2063H11.21H11.2136H11.2173H11.2209H11.2245H11.2282H11.2318H11.2355H11.2391H11.2427H11.2464H11.25H11.2537H11.2573H11.2609H11.2646H11.2682H11.2718H11.2755H11.2791H11.2828H11.2864H11.29H11.2937H11.2973H11.301H11.3046H11.3082H11.3119H11.3155H11.3191H11.3228H11.3264H11.3301H11.3337H11.3373H11.341H11.3446H11.3483H11.3519H11.3555H11.3592H11.3628H11.3664H11.3701H11.3737H11.3774H11.381H11.3846H11.3883H11.3919H11.3955H11.3992H11.4028H11.4064H11.4101H11.4137H11.4174H11.421H11.4246H11.4283H11.4319H11.4355H11.4392H11.4428H11.4465H11.4501H11.4537H11.4574H11.461H11.4646H11.4683H11.4719H11.4755H11.4792H11.4828H11.4865H11.4901H11.4937H11.4974H11.501H11.5046H11.5083H11.5119H11.5155H11.5192H11.5228H11.5264H11.5301H11.5337H11.5374H11.541H11.5446H11.5483H11.5519H11.5555H11.5592H11.5628H11.5664H11.5701H11.5737H11.5773H11.581H11.5846H11.5882H11.5919H11.5955H11.5991H11.6028H11.6064H11.6101H11.6137H11.6173H11.621H11.6246H11.6282H11.6319H11.6355H11.6391H11.6428H11.6464H11.65H11.6537H11.6573H11.6609H11.6646H11.6682H11.6718H11.6755H11.6791H11.6827H11.6864H11.69H11.6936H11.6973H11.7009H11.7046H11.7082H11.7118H11.7155H11.7191H11.7227H11.7264H11.73H11.7336H11.7373H11.7409H11.7445H11.7482H11.7518H11.7554H11.7591H11.7627H11.7663H11.77H11.7736H11.7772H11.7809H11.7845H11.7881H11.7918H11.7954H11.799H11.8027H11.8063H11.8099H11.8136H11.8172H11.8208H11.8245H11.8281H11.8317H11.8354H11.839H11.8426H11.8463H11.8499H11.8535H11.8572H11.8608H11.8644H11.8681H11.8717H11.8753H11.879H11.8826H11.8862C12.038 9.8827 12.1891 9.88296 12.3398 9.88321C12.7889 9.88398 13.2341 9.88473 13.6829 9.87867L13.683 9.87867C14.3894 9.86925 14.9735 9.42354 15.1655 8.79721C15.2548 8.49936 15.2241 8.19175 15.1547 7.77131L15.1542 7.76786C15.0685 7.22542 14.9839 6.68405 14.8993 6.14313L14.899 6.14121C14.8144 5.59969 14.7298 5.05862 14.6442 4.51659C14.6133 4.3241 14.5855 4.13647 14.5582 3.9523C14.4877 3.47655 14.4206 3.02396 14.3129 2.57074L14.3125 2.56905C14.1747 1.97956 13.5792 1.50895 12.9632 1.50269C11.5427 1.49047 10.1209 1.492 8.69728 1.49353C8.22229 1.49404 7.74711 1.49455 7.27173 1.49455C7.21111 1.49455 7.14723 1.50016 7.08781 1.51097L7.08703 1.51111C6.75109 1.57164 6.45304 1.74962 6.09268 2.00587L6.09193 2.00641C6.06223 2.02745 6.0488 2.04078 6.04369 2.04663C6.04168 2.05455 6.03778 2.0759 6.03772 2.11955C6.04979 4.5338 6.04599 6.94779 6.04198 9.35991C7.11333 10.1194 7.68641 11.1861 7.72259 12.5111L7.72262 12.5123C7.73005 12.8122 7.72858 13.1261 7.72715 13.4307C7.72623 13.6269 7.72533 13.8193 7.72684 14.0016L7.72685 14.0016V14.0058C7.72685 14.0316 7.73117 14.0459 7.73335 14.0516C7.7342 14.0538 7.7349 14.0551 7.73533 14.0559C7.73606 14.0563 7.7374 14.057 7.73959 14.0579C7.74515 14.0601 7.75904 14.0645 7.78391 14.0648L7.78391 14.0648L7.78736 14.0648C8.19633 14.0728 8.52027 14.0527 8.81513 13.9311L8.81513 13.9311L8.81692 13.9304C9.63184 13.598 10.0749 12.8026 9.92025 11.8812L9.92016 11.8807C9.91504 11.8499 9.91008 11.8199 9.90523 11.7905C9.86902 11.5709 9.83846 11.3855 9.78666 11.2088L9.78445 11.2012L9.78248 11.1936C9.74615 11.0535 9.69127 10.9158 9.6204 10.738C9.59895 10.6841 9.57604 10.6266 9.55174 10.5643ZM6.04104 2.05008C6.04109 2.05008 6.04154 2.04952 6.04221 2.0484C6.04132 2.04952 6.04098 2.05008 6.04104 2.05008ZM6.04436 2.04424C6.04473 2.04337 6.04488 2.04289 6.04486 2.04286L6.04436 2.04424Z" stroke="#9C9C9C"/>
<path d="M1.7052 9.19602L1.70587 9.19603C2.22809 9.20808 2.75025 9.20809 3.26828 9.19607C3.55682 9.18726 3.73993 9.00006 3.74027 8.70121C3.73619 7.65212 3.73619 6.60319 3.73619 5.5554V5.55467V5.54857V5.54247V5.53638V5.53028V5.52419V5.51809V5.512V5.5059V5.49981V5.49371V5.48762V5.48152V5.47542V5.46933V5.46324V5.45714V5.45105V5.44495V5.43886V5.43276V5.42667V5.42057V5.41448V5.40839V5.40229V5.3962V5.3901V5.38401V5.37792V5.37182V5.36573V5.35964V5.35354V5.34745V5.34136V5.33526V5.32917V5.32308V5.31699V5.31089V5.3048V5.29871V5.29261V5.28652V5.28043V5.27434V5.26825V5.26215V5.25606V5.24997V5.24388V5.23779V5.23169V5.2256V5.21951V5.21342V5.20733V5.20124V5.19514V5.18905V5.18296V5.17687V5.17078V5.16469V5.1586V5.15251V5.14642V5.14033V5.13424V5.12815V5.12205V5.11596V5.10987V5.10378V5.09769V5.0916V5.08551V5.07942V5.07333V5.06724V5.06115V5.05506V5.04897V5.04288V5.0368V5.03071V5.02462V5.01853V5.01244V5.00635V5.00026V4.99417V4.98808V4.98199V4.9759V4.96981V4.96373V4.95764V4.95155V4.94546V4.93937V4.93328V4.92719V4.92111V4.91502V4.90893V4.90284V4.89675V4.89066V4.88458V4.87849V4.8724V4.86631V4.86022V4.85414V4.84805V4.84196V4.83587V4.82979V4.8237V4.81761V4.81152V4.80544V4.79935V4.79326V4.78717V4.78109V4.775V4.76891V4.76282V4.75674V4.75065V4.74456V4.73848V4.73239V4.7263V4.72022V4.71413V4.70804V4.70196V4.69587V4.68978V4.6837V4.67761V4.67152V4.66544V4.65935V4.65326V4.64718V4.64109V4.63501V4.62892V4.62283V4.61675V4.61066V4.60457V4.59849V4.5924V4.58632V4.58023V4.57415V4.56806V4.56197V4.55589V4.5498V4.54372V4.53763V4.53155V4.52546V4.51937V4.51329V4.5072V4.50112V4.49503V4.48895V4.48286V4.47678V4.47069V4.46461V4.45852V4.45244V4.44635V4.44026V4.43418V4.42809V4.42201V4.41592V4.40984V4.40375V4.39767V4.39158V4.3855V4.37941V4.37333V4.36724V4.36116V4.35507V4.34899V4.34291V4.33682V4.33074V4.32465V4.31857V4.31248V4.3064V4.30031V4.29423V4.28814V4.28206V4.27597V4.26989V4.2638V4.25772V4.25164V4.24555V4.23947V4.23338V4.2273V4.22121V4.21513V4.20904V4.20296V4.19688V4.19079V4.18471V4.17862V4.17254V4.16645V4.16037V4.15429V4.1482V4.14212V4.13603V4.12995V4.12386V4.11778V4.1117V4.10561V4.09953V4.09344V4.08736V4.08127V4.07519V4.06911V4.06302V4.05694V4.05085V4.04477V4.03868V4.0326V4.02652V4.02043V4.01435V4.00826V4.00218V3.9961V3.99001V3.98393V3.97784V3.97176V3.96567V3.95959V3.95351V3.94742V3.94134V3.93525V3.92917V3.92309V3.917V3.91092V3.90483V3.89875V3.89266V3.88658V3.8805V3.87441V3.86833V3.86224V3.85616V3.85007V3.84399V3.83791V3.83182V3.82574V3.81965V3.81357V3.80748V3.8014V3.79531V3.78923V3.78315V3.77706V3.77098V3.76489V3.75881V3.75272V3.74664V3.74055V3.73447V3.72839V3.7223V3.71622V3.71013V3.70405V3.69796V3.69188V3.68579V3.67971V3.67362V3.66754V3.66146V3.65537V3.64929V3.6432V3.63712V3.63103V3.62495V3.61886V3.61278V3.60669V3.60061V3.59452V3.58844V3.58235V3.57627V3.57018V3.5641V3.55801V3.55193V3.54584V3.53976V3.53367V3.52759V3.5215V3.51541V3.50933V3.50324V3.49716V3.49107V3.48499V3.4789V3.47282V3.46673V3.46065V3.45456V3.44847V3.44239V3.4363V3.43022V3.42413V3.41805V3.41196V3.40587V3.39979V3.3937V3.38762V3.38153V3.37544V3.36936V3.36327V3.35719V3.3511V3.34501V3.33893V3.33284V3.32675V3.32067V3.31458V3.30849V3.30241V3.29632V3.29023V3.28415V3.27806V3.27197V3.26589V3.2598V3.25371V3.24763V3.24154V3.23545V3.22937V3.22328V3.21719V3.2111V3.20502V3.19893V3.19284V3.18676V3.18067V3.17458V3.16849V3.16241V3.15632V3.15023V3.14414V3.13805V3.13197V3.12588V3.11979V3.1137V3.10761V3.10153V3.09544V3.08935V3.08326V3.07717V3.07109V3.065V3.05891V3.05282V3.04673V3.04064V3.03455V3.02847V3.02238V3.01629V3.0102V3.00411V2.99802V2.99193V2.98584V2.97975V2.97366V2.96757V2.96148V2.9554V2.94931V2.94322V2.93713V2.93104V2.92495V2.91886V2.91277V2.90668V2.90059V2.8945V2.88841V2.88232V2.87623V2.87014V2.86405V2.85795V2.85186V2.84577V2.83968V2.83359V2.8275V2.82141V2.81532V2.80923V2.80314V2.79705V2.79095V2.78486V2.77877V2.77268V2.76659V2.7605V2.75441V2.74831V2.74222V2.73613V2.73004V2.72395V2.71785V2.71176V2.70567V2.69958V2.69348V2.68739V2.6813V2.67521V2.66911V2.66302V2.65693V2.65083V2.64474V2.63865V2.63255V2.62646V2.62037V2.61427V2.60818V2.60209V2.59599V2.5899V2.5838V2.57771V2.57162V2.56552V2.55943V2.55333V2.54724V2.54114V2.53505V2.52895V2.52286V2.51677V2.51067V2.50458V2.49848V2.49238V2.48629V2.48019V2.4741V2.468V2.46191V2.45581V2.44972V2.44362V2.43752C3.73619 2.25651 3.67623 2.13628 3.60316 2.06279C3.53037 1.98958 3.41185 1.92976 3.2325 1.92976H3.22952H3.22653H3.22354H3.22055H3.21756H3.21457H3.21159H3.2086H3.20561H3.20262H3.19963H3.19664H3.19366H3.19067H3.18768H3.18469H3.1817H3.17871H3.17573H3.17274H3.16975H3.16676H3.16377H3.16079H3.1578H3.15481H3.15182H3.14883H3.14584H3.14286H3.13987H3.13688H3.13389H3.1309H3.12791H3.12493H3.12194H3.11895H3.11596H3.11297H3.10999H3.107H3.10401H3.10102H3.09803H3.09505H3.09206H3.08907H3.08608H3.08309H3.0801H3.07712H3.07413H3.07114H3.06815H3.06516H3.06218H3.05919H3.0562H3.05321H3.05022H3.04724H3.04425H3.04126H3.03827H3.03528H3.0323H3.02931H3.02632H3.02333H3.02035H3.01736H3.01437H3.01138H3.00839H3.00541H3.00242H2.99943H2.99644H2.99346H2.99047H2.98748H2.98449H2.9815H2.97852H2.97553H2.97254H2.96955H2.96657H2.96358H2.96059H2.9576H2.95462H2.95163H2.94864H2.94565H2.94267H2.93968H2.93669H2.9337H2.93072H2.92773H2.92474H2.92175H2.91877H2.91578H2.91279H2.90981H2.90682H2.90383H2.90084H2.89786H2.89487H2.89188H2.8889H2.88591H2.88292H2.87993H2.87695H2.87396H2.87097H2.86799H2.865H2.86201H2.85903H2.85604H2.85305H2.85007H2.84708H2.84409H2.8411H2.83812H2.83513H2.83214H2.82916H2.82617H2.82318H2.8202H2.81721H2.81423H2.81124H2.80825H2.80527H2.80228H2.79929H2.79631H2.79332H2.79033H2.78735H2.78436H2.78138H2.77839H2.7754H2.77242H2.76943H2.76644H2.76346H2.76047H2.75749H2.7545H2.75151H2.74853H2.74554H2.74256H2.73957H2.73658H2.7336H2.73061H2.72763H2.72464H2.72166H2.71867H2.71569H2.7127H2.70971H2.70673H2.70374H2.70076H2.69777H2.69479H2.6918H2.68882H2.68583H2.68285H2.67986H2.67688H2.67389H2.67091H2.66792H2.66494H2.66195H2.65897H2.65598H2.653H2.65001H2.64703H2.64404H2.64106H2.63807H2.63509H2.6321H2.62912H2.62613H2.62315H2.62016H2.61718H2.61419H2.61121H2.60823H2.60524H2.60226H2.59927H2.59629H2.59331H2.59032H2.58734H2.58435H2.58137H2.57838H2.5754H2.57242H2.56943H2.56645H2.56347H2.56048H2.5575H2.55451H2.55153H2.54855H2.54556H2.54258H2.5396H2.53661H2.53363H2.53065H2.52766H2.52468H2.5217H2.51871H2.51573H2.51275H2.50977H2.50678H2.5038H2.50082H2.49783H2.49485H2.49187H2.48889H2.4859H2.48292H2.47994H2.47696H2.47397H2.47099H2.46801H2.46503H2.46204H2.45906H2.45608H2.4531H2.45012H2.44713H2.44415H2.44117H2.43819H2.43521H2.43222H2.42924H2.42626H2.42328H2.4203H2.41732H2.41433H2.41135H2.40837H2.40539H2.40241H2.39943H2.39645H2.39347H2.39048H2.3875H2.38452H2.38154H2.37856H2.37558H2.3726H2.36962H2.36664H2.36366H2.36068H2.3577H2.35472H2.35173H2.34875H2.34577H2.34279H2.33981H2.33683H2.33385H2.33087H2.32789H2.32491H2.32193H2.31895H2.31597H2.31299H2.31002H2.30704H2.30406H2.30108H2.2981H2.29512H2.29214H2.28916H2.28618H2.2832H2.28022H2.27724H2.27426H2.27129H2.26831H2.26533H2.26235H2.25937H2.25639H2.25341H2.25043H2.24746H2.24448H2.2415H2.23852H2.23554H2.23257H2.22959H2.22661H2.22363H2.22065H2.21768H2.2147H2.21172H2.20874H2.20577H2.20279H2.19981H2.19683H2.19386H2.19088H2.1879H2.18492H2.18195H2.17897H2.17599H2.17302H2.17004H2.16706H2.16409H2.16111H2.15813H2.15516H2.15218H2.1492H2.14623H2.14325H2.14028H2.1373H2.13432H2.13135H2.12837H2.1254H2.12242H2.11944H2.11647H2.11349H2.11052H2.10754H2.10457H2.10159H2.09862H2.09564H2.09267H2.08969H2.08672H2.08374H2.08077H2.07779H2.07482H2.07184H2.06887H2.06589H2.06292H2.05995H2.05697H2.054H2.05102H2.04805H2.04508H2.0421H2.03913H2.03615H2.03318H2.03021H2.02723H2.02426H2.02129H2.01831H2.01534H2.01237H2.00939H2.00642H2.00345H2.00048H1.9975H1.99453H1.99156H1.98859H1.98561H1.98264H1.97967H1.9767H1.97372H1.97075H1.96778H1.96481H1.96184H1.95887H1.95589H1.95292H1.94995H1.94698H1.94401H1.94104H1.93807H1.93509H1.93212H1.92915H1.92618H1.92321H1.92024H1.91727H1.9143H1.91133H1.90836H1.90539H1.90242H1.89945H1.89648H1.89351H1.89054H1.88757H1.8846H1.88163H1.87866H1.87569H1.87272H1.86975H1.86678H1.86381H1.86084H1.85787H1.85491H1.85194H1.84897H1.846H1.84303H1.84006H1.83709H1.83413H1.83116H1.82819H1.82522H1.82225H1.81929H1.81632H1.81335H1.81038H1.80742H1.80445H1.80148H1.79851H1.79555H1.79258H1.78961H1.78664H1.78368H1.78071H1.77774H1.77478H1.77181H1.76885H1.76588H1.76291H1.75995H1.75698H1.75401H1.75105H1.74808H1.74512H1.74215H1.73919H1.73622H1.73326H1.73029H1.72733H1.72436H1.7214H1.71843H1.71547H1.7125H1.70954H1.70657C1.43328 1.92976 1.23145 2.12885 1.23145 2.40896V2.42125V2.43354V2.44583V2.45811V2.4704V2.48269V2.49498V2.50727V2.51955V2.53184V2.54413V2.55642V2.56871V2.58099V2.59328V2.60557V2.61786V2.63015V2.64243V2.65472V2.66701V2.6793V2.69159V2.70387V2.71616V2.72845V2.74074V2.75302V2.76531V2.7776V2.78989V2.80218V2.81446V2.82675V2.83904V2.85133V2.86362V2.87591V2.88819V2.90048V2.91277V2.92506V2.93735V2.94963V2.96192V2.97421V2.9865V2.99879V3.01107V3.02336V3.03565V3.04794V3.06023V3.07251V3.0848V3.09709V3.10938V3.12167V3.13396V3.14624V3.15853V3.17082V3.18311V3.1954V3.20768V3.21997V3.23226V3.24455V3.25684V3.26913V3.28141V3.2937V3.30599V3.31828V3.33057V3.34286V3.35515V3.36743V3.37972V3.39201V3.4043V3.41659V3.42888V3.44116V3.45345V3.46574V3.47803V3.49032V3.50261V3.5149V3.52718V3.53947V3.55176V3.56405V3.57634V3.58863V3.60092V3.61321V3.62549V3.63778V3.65007V3.66236V3.67465V3.68694V3.69923V3.71152V3.72381V3.73609V3.74838V3.76067V3.77296V3.78525V3.79754V3.80983V3.82212V3.83441V3.8467V3.85899V3.87127V3.88356V3.89585V3.90814V3.92043V3.93272V3.94501V3.9573V3.96959V3.98188V3.99417V4.00646V4.01875V4.03104V4.04333V4.05562V4.0679V4.08019V4.09248V4.10477V4.11706V4.12935V4.14164V4.15393V4.16622V4.17851V4.1908V4.20309V4.21538V4.22767V4.23996V4.25225V4.26454V4.27683V4.28912V4.30141V4.3137V4.32599V4.33828V4.35057V4.36286V4.37515V4.38744V4.39973V4.41202V4.42431V4.4366V4.44889V4.46118V4.47348V4.48577V4.49806V4.51035V4.52264V4.53493V4.54722V4.55951V4.5718V4.58409V4.59638V4.60867V4.62096V4.63325V4.64555V4.65784V4.67013V4.68242V4.69471V4.707V4.71929V4.73158V4.74387V4.75617V4.76846V4.78075V4.79304V4.80533V4.81762V4.82991V4.8422V4.8545V4.86679V4.87908V4.89137V4.90366V4.91595V4.92825V4.94054V4.95283V4.96512V4.97741V4.9897V5.002V5.01429V5.02658V5.03887V5.05117V5.06346V5.07575V5.08804V5.10033V5.11263V5.12492V5.13721V5.1495V5.1618V5.17409V5.18638V5.19867V5.21097V5.22326V5.23555V5.24784V5.26014V5.27243V5.28472V5.29702V5.30931V5.3216V5.33389V5.34619V5.35848V5.37077V5.38307V5.39536V5.40765V5.41995V5.43224V5.44453V5.45683V5.46912V5.48141V5.49371V5.506V5.5183V5.53059V5.54288V5.55518V5.56747V5.57976V5.59206V5.60435V5.61665V5.62894V5.64124V5.65353V5.66582V5.67812V5.69041V5.70271V5.715V5.7273V5.73959V5.75189V5.76418V5.77647V5.78877V5.80106V5.81336V5.82565V5.83795V5.85024V5.86254V5.87483V5.88713V5.89942V5.91172V5.92402V5.93631V5.94861V5.9609V5.9732V5.98549V5.99779V6.01008V6.02238V6.03468V6.04697V6.05927V6.07156V6.08386V6.09616V6.10845V6.12075V6.13304V6.14534V6.15764V6.16993V6.18223V6.19453V6.20682V6.21912V6.23142V6.24371V6.25601V6.26831V6.2806V6.2929V6.3052V6.31749V6.32979V6.34209V6.35439V6.36668V6.37898V6.39128V6.40358V6.41587V6.42817V6.44047V6.45277V6.46506V6.47736V6.48966V6.50196V6.51426V6.52655V6.53885V6.55115V6.56345V6.57575V6.58805V6.60034V6.61264V6.62494V6.63724V6.64954V6.66184V6.67414V6.68644V6.69873V6.71103V6.72333V6.73563V6.74793V6.76023V6.77253V6.78483V6.79713V6.80943V6.82173V6.83403V6.84633V6.85863V6.87093V6.88323V6.89553V6.90783V6.92013V6.93243V6.94473V6.95703V6.96933V6.98163V6.99393V7.00623V7.01853V7.03083V7.04313V7.05543V7.06773V7.08004V7.09234V7.10464V7.11694V7.12924V7.14154V7.15384V7.16614V7.17845V7.19075V7.20305V7.21535V7.22765V7.23996V7.25226V7.26456V7.27686V7.28916V7.30147V7.31377V7.32607V7.33837V7.35068V7.36298V7.37528V7.38758V7.39989V7.41219V7.42449V7.4368V7.4491V7.4614V7.47371V7.48601V7.49831V7.51062V7.52292V7.53522V7.54753V7.55983V7.57214V7.58444V7.59674V7.60905V7.62135V7.63366V7.64596V7.65827V7.67057V7.68287V7.69518V7.70748V7.71979V7.73209V7.7444V7.7567V7.76901V7.78131V7.79362V7.80593V7.81823V7.83054V7.84284V7.85515V7.86745V7.87976V7.89207V7.90437V7.91668V7.92898V7.94129V7.9536V7.9659V7.97821V7.99052V8.00282V8.01513V8.02744V8.03974V8.05205V8.06436V8.07667V8.08897V8.10128V8.11359V8.1259V8.1382V8.15051V8.16282V8.17513V8.18744V8.19974V8.21205V8.22436V8.23667V8.24898V8.26128V8.27359V8.2859V8.29821V8.31052V8.32283V8.33514V8.34745V8.35976V8.37207V8.38437V8.39668V8.40899V8.4213V8.43361V8.44592V8.45823V8.47054V8.48285V8.49516V8.50747V8.51978V8.53209V8.54441V8.55672V8.56903V8.58134V8.59365V8.60596V8.61827V8.63058V8.64289V8.6552V8.66752V8.67983V8.69214V8.70445C1.23145 8.99785 1.4203 9.18982 1.7052 9.19602Z" stroke="#9C9C9C"/>
</svg>
