<svg width="12" height="12" viewBox="0 0 12 12" fill="none" xmlns="http://www.w3.org/2000/svg">
<path d="M5.65814 0C2.54616 0 0 2.54616 0 5.65814C0 8.77012 2.54616 11.3163 5.65814 11.3163C7.21413 11.3163 8.65696 10.708 9.67543 9.67542L8.65696 8.65696C7.89311 9.42081 6.83221 9.90175 5.644 9.90175C3.29587 9.90175 1.40039 8.00627 1.40039 5.65814C1.40039 3.31001 3.29587 1.41454 5.644 1.41454C6.81806 1.41454 7.83653 1.92377 8.60038 2.70176L7.05853 4.24361H11.3021V0L9.61884 1.6833C8.60038 0.664832 7.19999 0 5.644 0H5.65814Z" fill="#555555"/>
</svg>
