<svg width="22" height="22" viewBox="0 0 22 22" fill="none" xmlns="http://www.w3.org/2000/svg">
<circle cx="11" cy="11" r="11" fill="#4F6BE8"/>
<path d="M7.714 13.69C8.73133 12.962 9.54333 12.36 10.15 11.884C10.7567 11.408 11.2793 10.9227 11.718 10.428C12.166 9.924 12.4273 9.44333 12.502 8.986C12.53 8.85533 12.544 8.734 12.544 8.622C12.544 8.35133 12.4693 8.146 12.32 8.006C12.18 7.866 11.9653 7.796 11.676 7.796C10.9573 7.796 10.5 8.30467 10.304 9.322H7.98C8.22267 8.146 8.72667 7.264 9.492 6.676C10.2667 6.07867 11.1533 5.78 12.152 5.78C13.1227 5.78 13.8413 5.99933 14.308 6.438C14.784 6.87667 15.022 7.45533 15.022 8.174C15.022 8.398 15.0033 8.60333 14.966 8.79C14.798 9.742 14.3033 10.6287 13.482 11.45C12.67 12.2713 11.662 13.0927 10.458 13.914H14.238L13.888 15.86H6.86L7.168 14.082L7.714 13.69Z" fill="white"/>
</svg>
