<svg width="20" height="20" viewBox="0 0 20 20" fill="none" xmlns="http://www.w3.org/2000/svg">
<path d="M0.686622 0C5.69355 2.49086 10.7005 4.98172 15.7074 7.47259C16.9819 8.10444 18.2564 8.74674 19.5309 9.37859C19.7718 9.49869 19.97 9.65013 19.9968 9.94256C20.0235 10.2663 19.8843 10.4909 19.5898 10.6423C18.7812 11.0444 17.9726 11.4517 17.164 11.8538C11.809 14.5326 6.45396 17.2063 1.09896 19.8799C0.927597 19.9634 0.718752 20 0.525972 20C0.242156 20 0.0172463 19.765 0.0333114 19.4883C0.0440214 19.2063 0.0922163 18.9191 0.156476 18.6423C0.670556 16.3812 1.19535 14.1253 1.71478 11.8642C1.74156 11.7546 1.77904 11.7023 1.90756 11.6815C2.96785 11.5091 4.02279 11.3211 5.07772 11.1436C6.27189 10.9399 7.46605 10.7415 8.66557 10.5379C9.55986 10.3864 10.4541 10.235 11.3431 10.0836C11.3752 10.0783 11.402 10.0679 11.4823 10.0418C11.4073 10.0052 11.3752 9.97911 11.3377 9.97389C10.0954 9.76501 8.853 9.55614 7.61599 9.34204C6.42718 9.1436 5.23837 8.93995 4.04956 8.73629C3.33199 8.61619 2.61978 8.48564 1.90221 8.37076C1.77904 8.34987 1.74156 8.29243 1.71478 8.18277C1.15251 5.78068 0.595587 3.36815 0.0440214 0.955614C-0.00952862 0.720627 -0.0470137 0.45953 0.135056 0.266318C0.247511 0.151436 0.418871 0.0887728 0.563456 0C0.606296 0 0.643782 0 0.686622 0Z" fill="#DEDEE5"/>
</svg>
