<svg width="24" height="24" viewBox="0 0 24 24" fill="none" xmlns="http://www.w3.org/2000/svg">
<mask id="path-1-inside-1_21_12076" fill="white">
<path fill-rule="evenodd" clip-rule="evenodd" d="M5.0138 4.2431C4.62662 4.17024 4.20754 4.23424 3.93984 4.52329C2.84314 5.70753 2.00366 7.13389 1.51034 8.71334C1.39044 9.09721 1.5525 9.49995 1.82057 9.79971C2.34272 10.3836 2.66023 11.1547 2.66023 12C2.66023 12.8454 2.34272 13.6165 1.82058 14.2003C1.55251 14.5001 1.39045 14.9028 1.51035 15.2867C2.00367 16.8661 2.84314 18.2925 3.93984 19.4767C4.20753 19.7658 4.62662 19.8298 5.01379 19.7569C5.21232 19.7195 5.41713 19.7 5.6265 19.7C7.07086 19.7 8.29824 20.6299 8.74383 21.9243C8.8722 22.2972 9.13578 22.6301 9.52004 22.7188C10.3169 22.9028 11.1469 23 11.9995 23C13.0433 23 14.053 22.8543 15.0096 22.5822C15.3578 22.4831 15.5974 22.1812 15.7243 21.8422C16.1927 20.5908 17.3985 19.7 18.8121 19.7C18.925 19.7 19.0366 19.7057 19.1466 19.7168C19.5061 19.7531 19.8821 19.672 20.1253 19.4048C21.1901 18.2344 22.006 16.8331 22.4893 15.2848C22.6091 14.9012 22.4473 14.4987 22.1796 14.199C21.6581 13.6153 21.3411 12.8447 21.3411 12C21.3411 11.1553 21.6581 10.3847 22.1796 9.801C22.4473 9.50132 22.6091 9.09888 22.4894 8.71528C22.0061 7.1669 21.1901 5.76559 20.1253 4.59521C19.8821 4.32795 19.5061 4.24694 19.1466 4.28321C19.0366 4.29431 18.925 4.29999 18.8121 4.29999C17.3985 4.29999 16.1927 3.40922 15.7243 2.15778C15.5974 1.81877 15.3578 1.51691 15.0096 1.41785C14.053 1.14568 13.0433 1 11.9995 1C11.1469 1 10.3169 1.09723 9.52004 1.28121C9.13578 1.36994 8.8722 1.70276 8.74383 2.07565C8.29824 3.37006 7.07085 4.29999 5.6265 4.29999C5.41713 4.29999 5.21233 4.28045 5.0138 4.2431Z"/>
</mask>
<path d="M9.52004 1.28121L9.0701 -0.667518L9.52004 1.28121ZM15.0096 1.41785L14.4623 3.3415L15.0096 1.41785ZM22.1796 9.801L20.6881 8.46856L22.1796 9.801ZM22.4894 8.71528L24.3985 8.11938L22.4894 8.71528ZM19.1466 19.7168L19.3474 17.7269L19.1466 19.7168ZM20.1253 19.4048L18.6459 18.0588L20.1253 19.4048ZM15.0096 22.5822L14.4623 20.6585L15.0096 22.5822ZM15.7243 21.8422L17.5973 22.5433L15.7243 21.8422ZM3.93984 19.4767L5.40724 18.1178L3.93984 19.4767ZM5.01379 19.7569L4.64393 17.7914L5.01379 19.7569ZM20.1253 4.59521L18.6459 5.94116L20.1253 4.59521ZM19.1466 4.28321L18.9459 2.29331L19.1466 4.28321ZM8.74383 21.9243L6.85275 22.5753L8.74383 21.9243ZM9.52004 22.7188L9.96999 20.7701L9.52004 22.7188ZM5.0138 4.2431L5.38365 2.27759L5.0138 4.2431ZM22.4893 15.2848L20.5802 14.6888L22.4893 15.2848ZM22.1796 14.199L20.688 15.5315L22.1796 14.199ZM1.82057 9.79971L0.329755 11.1329L1.82057 9.79971ZM3.41939 9.30961C3.82223 8.01982 4.50849 6.85273 5.40725 5.88224L2.47244 3.16435C1.17779 4.56233 0.185084 6.24795 -0.398712 8.11708L3.41939 9.30961ZM4.66023 12C4.66023 10.6443 4.14889 9.403 3.31139 8.4665L0.329755 11.1329C0.536543 11.3642 0.660225 11.6651 0.660225 12H4.66023ZM3.31141 15.5335C4.1489 14.597 4.66023 13.3558 4.66023 12H0.660225C0.660225 12.335 0.536544 12.6359 0.329758 12.8671L3.31141 15.5335ZM5.40724 18.1178C4.50849 17.1473 3.82224 15.9802 3.4194 14.6904L-0.398698 15.883C0.185098 17.7521 1.17779 19.4377 2.47244 20.8356L5.40724 18.1178ZM5.38366 21.7224C5.46085 21.7079 5.54184 21.7 5.6265 21.7V17.7C5.29242 17.7 4.9638 17.7312 4.64393 17.7914L5.38366 21.7224ZM5.6265 21.7C6.19005 21.7 6.67608 22.0621 6.85275 22.5753L10.6349 21.2734C9.92041 19.1977 7.95166 17.7 5.6265 17.7V21.7ZM11.9995 21C11.2994 21 10.6203 20.9202 9.96999 20.7701L9.0701 24.6675C10.0135 24.8853 10.9944 25 11.9995 25V21ZM14.4623 20.6585C13.682 20.8805 12.8564 21 11.9995 21V25C13.2302 25 14.4241 24.8281 15.5569 24.5058L14.4623 20.6585ZM18.8121 17.7C16.5363 17.7 14.6021 19.135 13.8512 21.1411L17.5973 22.5433C17.7833 22.0465 18.2606 21.7 18.8121 21.7V17.7ZM19.3474 17.7269C19.1708 17.7091 18.9922 17.7 18.8121 17.7V21.7C18.8579 21.7 18.9024 21.7023 18.9458 21.7067L19.3474 17.7269ZM20.5802 14.6888C20.1855 15.9532 19.5185 17.0998 18.6459 18.0588L21.6046 20.7507C22.8617 19.3691 23.8266 17.713 24.3985 15.8807L20.5802 14.6888ZM19.3411 12C19.3411 13.3548 19.8516 14.5952 20.688 15.5315L23.6711 12.8666C23.4646 12.6354 23.3411 12.3347 23.3411 12H19.3411ZM20.6881 8.46856C19.8516 9.40483 19.3411 10.6453 19.3411 12H23.3411C23.3411 11.6653 23.4646 11.3646 23.6711 11.1334L20.6881 8.46856ZM18.6459 5.94116C19.5185 6.90024 20.1855 8.04678 20.5802 9.31119L24.3985 8.11938C23.8266 6.28701 22.8617 4.63094 21.6046 3.24927L18.6459 5.94116ZM18.8121 6.29999C18.9922 6.29999 19.1708 6.29093 19.3474 6.27311L18.9459 2.29331C18.9025 2.29769 18.8579 2.29999 18.8121 2.29999V6.29999ZM13.8512 2.85889C14.6021 4.86496 16.5363 6.29999 18.8121 6.29999V2.29999C18.2606 2.29999 17.7833 1.95348 17.5973 1.45667L13.8512 2.85889ZM11.9995 3C12.8564 3 13.682 3.11949 14.4623 3.3415L15.5569 -0.505806C14.4241 -0.828116 13.2302 -1 11.9995 -1V3ZM9.96999 3.22994C10.6203 3.07979 11.2994 3 11.9995 3V-1C10.9944 -1 10.0135 -0.885332 9.0701 -0.667518L9.96999 3.22994ZM5.6265 6.29999C7.95165 6.29999 9.9204 4.80227 10.6349 2.72665L6.85275 1.42466C6.67608 1.93786 6.19005 2.29999 5.6265 2.29999V6.29999ZM4.64394 6.2086C4.96381 6.26879 5.29243 6.29999 5.6265 6.29999V2.29999C5.54184 2.29999 5.46084 2.29212 5.38365 2.27759L4.64394 6.2086ZM9.0701 -0.667518C7.76194 -0.365476 7.1061 0.688689 6.85275 1.42466L10.6349 2.72665C10.6253 2.75466 10.5948 2.83174 10.5061 2.92789C10.4098 3.03232 10.2316 3.16955 9.96999 3.22994L9.0701 -0.667518ZM17.5973 1.45667C17.3433 0.778071 16.7379 -0.169799 15.5569 -0.505806L14.4623 3.3415C14.2253 3.27407 14.0644 3.14628 13.9751 3.04871C13.8918 2.95778 13.861 2.88507 13.8512 2.85889L17.5973 1.45667ZM23.6711 11.1334C24.2008 10.5405 24.8062 9.42537 24.3985 8.11938L20.5802 9.31119C20.4989 9.05072 20.5294 8.82358 20.5732 8.68544C20.6134 8.55849 20.6668 8.49241 20.6881 8.46856L23.6711 11.1334ZM18.9458 21.7067C19.667 21.7795 20.7811 21.6558 21.6046 20.7507L18.6459 18.0588C18.8108 17.8776 18.9957 17.7906 19.1223 17.7538C19.2404 17.7196 19.3192 17.724 19.3474 17.7269L18.9458 21.7067ZM15.5569 24.5058C16.7379 24.1698 17.3433 23.2219 17.5973 22.5433L13.8512 21.1411C13.861 21.1149 13.8918 21.0422 13.9751 20.9513C14.0644 20.8537 14.2253 20.7259 14.4623 20.6585L15.5569 24.5058ZM2.47244 20.8356C3.38237 21.8182 4.61955 21.8662 5.38366 21.7224L4.64393 17.7914C4.67273 17.786 4.75437 17.7744 4.88129 17.8036C5.01909 17.8354 5.22564 17.9217 5.40724 18.1178L2.47244 20.8356ZM21.6046 3.24927C20.7811 2.34419 19.667 2.22055 18.9459 2.29331L19.3474 6.27311C19.3192 6.27595 19.2404 6.28043 19.1223 6.24617C18.9957 6.20943 18.8108 6.12239 18.6459 5.94116L21.6046 3.24927ZM0.329758 12.8671C-0.200612 13.4602 -0.806908 14.576 -0.398698 15.883L3.4194 14.6904C3.50081 14.9511 3.47023 15.1784 3.42639 15.3166C3.38611 15.4436 3.33273 15.5097 3.31141 15.5335L0.329758 12.8671ZM6.85275 22.5753C7.1061 23.3113 7.76194 24.3655 9.0701 24.6675L9.96999 20.7701C10.2316 20.8305 10.4098 20.9677 10.5061 21.0721C10.5948 21.1683 10.6253 21.2453 10.6349 21.2734L6.85275 22.5753ZM5.40725 5.88224C5.22565 6.07833 5.0191 6.16459 4.88129 6.19636C4.75438 6.22562 4.67275 6.21402 4.64394 6.2086L5.38365 2.27759C4.61955 2.13381 3.38237 2.1818 2.47244 3.16435L5.40725 5.88224ZM24.3985 15.8807C24.8061 14.5747 24.2008 13.4596 23.6711 12.8666L20.688 15.5315C20.6667 15.5076 20.6134 15.4415 20.5732 15.3146C20.5294 15.1765 20.4989 14.9493 20.5802 14.6888L24.3985 15.8807ZM-0.398712 8.11708C-0.806917 9.42403 -0.200617 10.5399 0.329755 11.1329L3.31139 8.4665C3.33272 8.49034 3.3861 8.55642 3.42638 8.68342C3.47021 8.82163 3.5008 9.04896 3.41939 9.30961L-0.398712 8.11708Z" fill="black" mask="url(#path-1-inside-1_21_12076)"/>
<circle cx="12" cy="12" r="3" stroke="black" stroke-width="2"/>
</svg>
