<svg width="22" height="22" viewBox="0 0 22 22" fill="none" xmlns="http://www.w3.org/2000/svg">
<circle cx="11" cy="11" r="11" fill="#4F6BE8"/>
<path d="M13.286 8.538C13.2673 8.19267 13.1787 7.936 13.02 7.768C12.8707 7.59067 12.6233 7.502 12.278 7.502C11.746 7.502 11.3213 7.73067 11.004 8.188C10.696 8.64533 10.444 9.378 10.248 10.386C10.5187 10.0593 10.864 9.80267 11.284 9.616C11.704 9.42933 12.1473 9.336 12.614 9.336C13.398 9.336 14.014 9.55067 14.462 9.98C14.91 10.4093 15.134 11.016 15.134 11.8C15.134 12.108 15.1107 12.3833 15.064 12.626C14.9427 13.3073 14.7 13.9047 14.336 14.418C13.972 14.9313 13.5007 15.3327 12.922 15.622C12.3527 15.9113 11.704 16.056 10.976 16.056C9.86533 16.056 9.06733 15.7807 8.582 15.23C8.106 14.6793 7.868 13.886 7.868 12.85C7.868 12.3087 7.938 11.632 8.078 10.82C8.39533 9.04667 8.92267 7.73067 9.66 6.872C10.4067 6.004 11.4287 5.57 12.726 5.57C13.678 5.57 14.3827 5.81733 14.84 6.312C15.2973 6.79733 15.526 7.418 15.526 8.174C15.526 8.33267 15.5213 8.454 15.512 8.538H13.286ZM11.704 11.226C11.256 11.226 10.864 11.3753 10.528 11.674C10.2013 11.9727 10.038 12.3973 10.038 12.948C10.038 13.2933 10.1407 13.5593 10.346 13.746C10.5513 13.9327 10.85 14.026 11.242 14.026C11.6527 14.026 11.998 13.9047 12.278 13.662C12.5673 13.41 12.7493 13.0693 12.824 12.64C12.8427 12.4907 12.852 12.3787 12.852 12.304C12.852 11.968 12.754 11.7067 12.558 11.52C12.362 11.324 12.0773 11.226 11.704 11.226Z" fill="white"/>
</svg>
