<svg width="24" height="24" viewBox="0 0 24 24" fill="none" xmlns="http://www.w3.org/2000/svg">
<circle cx="12" cy="12" r="10" stroke="black" stroke-width="2"/>
<path d="M12.1575 4.72933C13.3275 4.72933 14.2815 5.03533 15.0015 5.68333C15.7215 6.31333 16.0815 7.17733 16.0815 8.27533C16.0815 9.17533 15.8475 9.91333 15.4155 10.4893C15.2535 10.6693 14.7315 11.1553 13.8675 11.9113C13.5435 12.1633 13.3095 12.4693 13.1475 12.7933C12.9675 13.1533 12.8775 13.5493 12.8775 13.9813V14.2333H10.8075V13.9813C10.8075 13.2973 10.9155 12.7033 11.1675 12.2173C11.4015 11.7313 11.8155 11.2273 12.4095 10.7053C12.9855 10.1833 13.3455 9.84133 13.4895 9.67933C13.8135 9.28333 13.9755 8.85133 13.9755 8.40133C13.9755 7.80733 13.7955 7.33933 13.4715 6.99733C13.1295 6.65533 12.6435 6.49333 12.0315 6.49333C11.2575 6.49333 10.6995 6.72733 10.3395 7.21333C10.0335 7.62733 9.8895 8.22133 9.8895 8.99533H7.8375C7.8375 7.66333 8.2155 6.61933 9.0075 5.86333C9.7815 5.10733 10.8255 4.72933 12.1575 4.72933ZM11.8335 15.1153C12.2295 15.1153 12.5715 15.2413 12.8415 15.4933C13.0935 15.7453 13.2375 16.0693 13.2375 16.4653C13.2375 16.8613 13.0935 17.2033 12.8415 17.4553C12.5535 17.7073 12.2295 17.8333 11.8335 17.8333C11.4375 17.8333 11.1135 17.6893 10.8615 17.4373C10.5735 17.1853 10.4475 16.8613 10.4475 16.4653C10.4475 16.0693 10.5735 15.7453 10.8615 15.4933C11.1135 15.2413 11.4375 15.1153 11.8335 15.1153Z" fill="black"/>
</svg>
