<svg width="25" height="25" viewBox="0 0 25 25" fill="none" xmlns="http://www.w3.org/2000/svg">
<path d="M8.59277 23.1592C8.31277 23.1592 8.02276 23.0893 7.76276 22.9493C7.19276 22.6493 6.84277 22.0492 6.84277 21.4092V19.9893C3.82277 19.6793 1.84277 17.4592 1.84277 14.2792V8.2793C1.84277 4.8393 4.15277 2.5293 7.59277 2.5293H17.5928C21.0328 2.5293 23.3428 4.8393 23.3428 8.2793V14.2792C23.3428 17.7192 21.0328 20.0292 17.5928 20.0292H13.8228L9.56274 22.8693C9.27274 23.0593 8.93277 23.1592 8.59277 23.1592ZM7.59277 4.01929C5.01277 4.01929 3.34277 5.68929 3.34277 8.26929V14.2693C3.34277 16.8493 5.01277 18.5193 7.59277 18.5193C8.00277 18.5193 8.34277 18.8593 8.34277 19.2693V21.3994C8.34277 21.5294 8.42278 21.5893 8.47278 21.6193C8.52278 21.6493 8.62279 21.6793 8.73279 21.6093L13.1828 18.6494C13.3028 18.5694 13.4528 18.5193 13.6028 18.5193H17.6028C20.1828 18.5193 21.8528 16.8493 21.8528 14.2693V8.26929C21.8528 5.68929 20.1828 4.01929 17.6028 4.01929H7.59277Z" fill="white"/>
<path d="M12.5926 12.9492C12.1826 12.9492 11.8426 12.6092 11.8426 12.1992V11.9893C11.8426 10.8293 12.6926 10.2592 13.0126 10.0392C13.3826 9.78925 13.5026 9.61925 13.5026 9.35925C13.5026 8.85925 13.0926 8.44922 12.5926 8.44922C12.0926 8.44922 11.6826 8.85925 11.6826 9.35925C11.6826 9.76925 11.3426 10.1093 10.9326 10.1093C10.5226 10.1093 10.1826 9.76925 10.1826 9.35925C10.1826 8.02925 11.2626 6.94922 12.5926 6.94922C13.9226 6.94922 15.0026 8.02925 15.0026 9.35925C15.0026 10.4993 14.1626 11.0692 13.8526 11.2792C13.4626 11.5392 13.3426 11.7093 13.3426 11.9893V12.1992C13.3426 12.6192 13.0026 12.9492 12.5926 12.9492Z" fill="white"/>
<path d="M12.5928 15.4395C12.1728 15.4395 11.8428 15.0995 11.8428 14.6895C11.8428 14.2795 12.1828 13.9395 12.5928 13.9395C13.0028 13.9395 13.3428 14.2795 13.3428 14.6895C13.3428 15.0995 13.0128 15.4395 12.5928 15.4395Z" fill="white"/>
</svg>
