<svg width="64" height="64" viewBox="0 0 64 64" fill="none" xmlns="http://www.w3.org/2000/svg">
<path d="M7.91916 63.8809L56.6517 63.8809C60.6379 63.8809 63.8694 60.6494 63.8694 56.6632L63.8694 7.93063C63.8694 3.94443 60.6379 0.712975 56.6517 0.712975L7.91916 0.712975C3.93295 0.712975 0.7015 3.94443 0.7015 7.93063L0.7015 56.6632C0.7015 60.6494 3.93296 63.8809 7.91916 63.8809Z" fill="#929292"/>
<path d="M19.6871 35.1398L25.0915 50.0544C25.0915 50.0544 25.7583 51.4581 26.4952 51.4581C27.2322 51.4581 37.9707 40.2985 37.9707 40.2985L49.9024 17.2422L19.8977 31.3146L19.7222 35.1748L19.6871 35.1398Z" fill="#C9C9C9"/>
<path d="M26.8463 38.9658L25.7935 49.9851C25.7935 49.9851 25.3723 53.3541 28.7413 49.9851C32.1102 46.6162 35.3388 44.0193 35.3388 44.0193L26.8463 39.0009V38.9658Z" fill="#A5A5A5"/>
<path d="M19.7921 35.6666L8.70266 32.0519C8.70266 32.0519 7.36911 31.5255 7.79023 30.2973C7.89551 30.0516 8.07098 29.8411 8.59738 29.455C11.0539 27.7355 54.1133 12.2593 54.1133 12.2593C54.1133 12.2593 55.3416 11.8382 56.0435 12.119C56.3593 12.2593 56.5699 12.3997 56.7453 12.891C56.8155 13.0665 56.8506 13.4876 56.8506 13.8736C56.8506 14.1544 56.8155 14.4351 56.7804 14.8211C56.5348 19.0674 48.6739 50.6163 48.6739 50.6163C48.6739 50.6163 48.2177 52.4762 46.5332 52.5113C45.9366 52.5113 45.1646 52.406 44.2872 51.634C40.9885 48.7914 29.5832 41.1411 27.0564 39.4566C26.9161 39.3513 26.881 39.2461 26.8459 39.1057C26.8108 38.9302 26.9862 38.7197 26.9862 38.7197C26.9862 38.7197 46.849 21.0678 47.3754 19.2078C47.4105 19.0674 47.2702 18.9972 47.0596 19.0674C45.7261 19.5587 22.8803 33.9821 20.3536 35.5964C20.2132 35.7016 19.7921 35.5964 19.7921 35.5964V35.6666Z" fill="white"/>
</svg>
