<svg width="22" height="22" viewBox="0 0 22 22" fill="none" xmlns="http://www.w3.org/2000/svg">
<circle cx="11" cy="11" r="11" fill="#4F6BE8"/>
<path d="M8.302 8.664C8.51667 7.66533 8.97867 6.89533 9.688 6.354C10.3973 5.81267 11.2793 5.542 12.334 5.542C13.258 5.542 13.9673 5.752 14.462 6.172C14.9567 6.592 15.204 7.138 15.204 7.81C15.204 7.978 15.19 8.146 15.162 8.314C15.05 8.93 14.8073 9.434 14.434 9.826C14.0607 10.2087 13.6547 10.47 13.216 10.61V10.666C13.636 10.8153 13.9627 11.0487 14.196 11.366C14.4293 11.674 14.546 12.066 14.546 12.542C14.546 12.7473 14.5273 12.9433 14.49 13.13C14.3313 14.0073 13.9067 14.7213 13.216 15.272C12.5253 15.8133 11.6573 16.084 10.612 16.084C9.61333 16.084 8.82467 15.8647 8.246 15.426C7.67667 14.9873 7.392 14.32 7.392 13.424C7.392 13.3027 7.41067 13.0833 7.448 12.766H9.772C9.75333 12.9153 9.744 13.018 9.744 13.074C9.744 13.4007 9.83733 13.6527 10.024 13.83C10.2107 14.0073 10.4907 14.096 10.864 14.096C11.284 14.096 11.62 13.9607 11.872 13.69C12.124 13.4193 12.25 13.074 12.25 12.654C12.25 12.3087 12.1193 12.0613 11.858 11.912C11.606 11.7533 11.2047 11.674 10.654 11.674H10.206L10.556 9.728H11.004C12.0587 9.728 12.656 9.35467 12.796 8.608C12.8147 8.496 12.824 8.412 12.824 8.356C12.824 8.09467 12.7447 7.894 12.586 7.754C12.4367 7.614 12.2173 7.544 11.928 7.544C11.5733 7.544 11.2887 7.65133 11.074 7.866C10.8593 8.08067 10.71 8.34667 10.626 8.664H8.302Z" fill="white"/>
</svg>
