<svg width="7" height="7" viewBox="0 0 7 7" fill="none" xmlns="http://www.w3.org/2000/svg">
<path fill-rule="evenodd" clip-rule="evenodd" d="M1.79008 0.277023C1.81888 0.116988 1.96456 0 2.13505 0H4.86505C5.03553 0 5.18121 0.116988 5.21001 0.277023L5.42001 1.44374L4.73008 1.55638L4.56994 0.666693H2.43015L2.27001 1.55638L1.58008 1.44374L1.79008 0.277023Z" fill="#515151"/>
<path fill-rule="evenodd" clip-rule="evenodd" d="M0 1.49936C0 1.31526 0.1567 1.16602 0.35 1.16602H6.65C6.8433 1.16602 7 1.31526 7 1.49936C7 1.68346 6.8433 1.83271 6.65 1.83271H0.35C0.1567 1.83271 0 1.68346 0 1.49936Z" fill="#515151"/>
<path fill-rule="evenodd" clip-rule="evenodd" d="M0.969671 1.27136C1.03584 1.20415 1.12826 1.16602 1.225 1.16602H5.775C5.87174 1.16602 5.96416 1.20415 6.03033 1.27136C6.0965 1.33858 6.1305 1.42888 6.12427 1.52082L5.77427 6.6877C5.76239 6.8631 5.60955 6.99958 5.425 6.99958H1.575C1.39045 6.99958 1.23761 6.8631 1.22573 6.6877L0.875727 1.52082C0.869499 1.42888 0.903505 1.33858 0.969671 1.27136ZM1.59831 1.83271L1.90315 6.33289H5.09685L5.40169 1.83271H1.59831Z" fill="#515151"/>
</svg>
