<svg width="64" height="64" viewBox="0 0 64 64" fill="none" xmlns="http://www.w3.org/2000/svg">
<path d="M56.5034 0.171875H7.77088C3.78468 0.171875 0.553223 3.40333 0.553223 7.38953V56.1221C0.553223 60.1083 3.78468 63.3398 7.77088 63.3398H56.5035C60.4897 63.3398 63.7211 60.1083 63.7211 56.1221V7.38953C63.7211 3.40333 60.4897 0.171875 56.5034 0.171875Z" fill="url(#paint0_linear_1906_2427)"/>
<path fill-rule="evenodd" clip-rule="evenodd" d="M49.5436 14.245C44.9113 9.61265 38.7699 7.08594 32.2426 7.08594C18.7668 7.08594 7.78258 18.0701 7.78258 31.5459C7.78258 35.8624 8.90557 40.0736 11.0463 43.7584L7.57202 56.4271L20.5565 53.023C24.136 54.9883 28.1367 56.006 32.2426 56.006C45.7184 56.006 56.7026 45.0218 56.7026 31.5459C56.7026 25.0186 54.1759 18.8773 49.5436 14.245ZM32.2426 51.8649C28.5929 51.8649 25.0134 50.8823 21.8901 49.0224L21.1531 48.5662L13.4677 50.6016L15.5382 43.0916L15.0469 42.3196C13.0115 39.091 11.9236 35.336 11.9236 31.5109C11.9236 20.3161 21.0478 11.1919 32.2777 11.1919C37.7171 11.1919 42.8057 13.2974 46.6659 17.1577C50.4911 20.9829 52.6318 26.1065 52.6318 31.5459C52.6318 42.7407 43.5075 51.8649 32.3128 51.8649H32.2426ZM43.4022 36.6345C42.8057 36.3186 39.7876 34.8447 39.2262 34.6342C38.6647 34.4236 38.2435 34.3183 37.8575 34.95C37.4364 35.5466 36.2783 36.9503 35.9274 37.3363C35.5765 37.7575 35.2255 37.7925 34.5938 37.4767C33.9973 37.1609 31.9969 36.5292 29.6808 34.4587C27.8559 32.8444 26.6277 30.8441 26.2767 30.2124C25.9258 29.5807 26.2416 29.2649 26.5575 28.949C26.8382 28.6683 27.1541 28.2472 27.4699 27.8612C27.7857 27.4751 27.891 27.2646 28.0665 26.8435C28.2771 26.4223 28.1718 26.0714 28.0314 25.7907C27.891 25.4748 26.6628 22.4919 26.1364 21.2636C25.6451 20.0704 25.1537 20.2459 24.7677 20.2108C24.4168 20.2108 23.9957 20.2108 23.6096 20.2108C23.2236 20.2108 22.5568 20.3512 21.9954 20.9829C21.4339 21.5795 19.8547 23.0885 19.8547 26.0714C19.8547 29.0543 22.0304 31.9671 22.3463 32.3882C22.6621 32.8093 26.6628 38.9506 32.8041 41.6177C34.278 42.2494 35.401 42.6354 36.2783 42.9162C37.7522 43.3724 39.0858 43.3022 40.1386 43.1618C41.2967 42.9864 43.7532 41.6879 44.2796 40.2491C44.806 38.8103 44.806 37.582 44.6305 37.3363C44.4901 37.0907 44.069 36.9152 43.4724 36.6345H43.4022Z" fill="white"/>
<defs>
<linearGradient id="paint0_linear_1906_2427" x1="32.1372" y1="58.7425" x2="32.1372" y2="-4.42534" gradientUnits="userSpaceOnUse">
<stop stop-color="#4FB848"/>
<stop offset="1" stop-color="#86C76C"/>
</linearGradient>
</defs>
</svg>
