<svg width="64" height="64" viewBox="0 0 64 64" fill="none" xmlns="http://www.w3.org/2000/svg">
<path d="M56.407 0.171875H7.67438C3.68818 0.171875 0.456726 3.40333 0.456726 7.38953V56.1221C0.456726 60.1083 3.68818 63.3398 7.67438 63.3398H56.407C60.3932 63.3398 63.6246 60.1083 63.6246 56.1221V7.38953C63.6246 3.40333 60.3932 0.171875 56.407 0.171875Z" fill="#929292"/>
<path fill-rule="evenodd" clip-rule="evenodd" d="M49.447 14.245C44.8147 9.61265 38.6734 7.08594 32.146 7.08594C18.6702 7.08594 7.68602 18.0701 7.68602 31.5459C7.68602 35.8624 8.80901 40.0736 10.9497 43.7584L7.47546 56.4271L20.46 53.023C24.0395 54.9883 28.0401 56.006 32.146 56.006C45.6218 56.006 56.606 45.0218 56.606 31.5459C56.606 25.0186 54.0793 18.8773 49.447 14.245ZM32.146 51.8649C28.4963 51.8649 24.9168 50.8823 21.7935 49.0224L21.0566 48.5662L13.3711 50.6016L15.4416 43.0916L14.9503 42.3196C12.9149 39.091 11.827 35.336 11.827 31.5109C11.827 20.3161 20.9513 11.1919 32.1811 11.1919C37.6206 11.1919 42.7091 13.2974 46.5694 17.1577C50.3945 20.9829 52.5352 26.1065 52.5352 31.5459C52.5352 42.7407 43.411 51.8649 32.2162 51.8649H32.146ZM43.3057 36.6345C42.7091 36.3186 39.6911 34.8447 39.1296 34.6342C38.5681 34.4236 38.147 34.3183 37.761 34.95C37.3398 35.5466 36.1818 36.9503 35.8308 37.3363C35.4799 37.7575 35.129 37.7925 34.4973 37.4767C33.9007 37.1609 31.9004 36.5292 29.5842 34.4587C27.7594 32.8444 26.5311 30.8441 26.1802 30.2124C25.8292 29.5807 26.1451 29.2649 26.4609 28.949C26.7417 28.6683 27.0575 28.2472 27.3733 27.8612C27.6892 27.4751 27.7945 27.2646 27.9699 26.8435C28.1805 26.4223 28.0752 26.0714 27.9348 25.7907C27.7945 25.4748 26.5662 22.4919 26.0398 21.2636C25.5485 20.0704 25.0572 20.2459 24.6712 20.2108C24.3202 20.2108 23.8991 20.2108 23.5131 20.2108C23.1271 20.2108 22.4603 20.3512 21.8988 20.9829C21.3373 21.5795 19.7581 23.0885 19.7581 26.0714C19.7581 29.0543 21.9339 31.9671 22.2497 32.3882C22.5656 32.8093 26.5662 38.9506 32.7075 41.6177C34.1814 42.2494 35.3044 42.6354 36.1818 42.9162C37.6557 43.3724 38.9892 43.3022 40.042 43.1618C41.2001 42.9864 43.6566 41.6879 44.183 40.2491C44.7094 38.8103 44.7094 37.582 44.534 37.3363C44.3936 37.0907 43.9725 36.9152 43.3759 36.6345H43.3057Z" fill="white"/>
</svg>
