<svg width="81" height="20" viewBox="0 0 81 20" fill="none" xmlns="http://www.w3.org/2000/svg">
<path d="M12.9077 0.539062H10.3688L0 19.2007H2.69395L11.6286 3.05513L20.5826 19.2007H23.2765L12.9077 0.539062Z" fill="#8822AC"/>
<path d="M33.6883 16.8498C32.07 16.8498 30.7908 15.5481 30.7908 13.9452V5.76553C30.7908 4.16264 32.07 2.86088 33.6689 2.86088H48.7957L49.3869 0.548828H33.6689C30.7908 0.548828 28.436 2.88032 28.436 5.76553V13.9452C28.436 16.8498 30.7908 19.2104 33.6883 19.2104H49.3869L49.978 16.8498H33.6883Z" fill="#8822AC"/>
<path d="M56.8721 16.8692V19.2007H79.5575L80.1292 16.8692H56.8721ZM74.8964 11.0114L75.4875 8.69932H56.8721V11.0114H74.8964ZM56.8721 0.548828V2.86088H79.5575L80.1292 0.548828H56.8721Z" fill="#8822AC"/>
</svg>
