<svg width="61" height="61" viewBox="0 0 61 61" fill="none" xmlns="http://www.w3.org/2000/svg">
<path fill-rule="evenodd" clip-rule="evenodd" d="M43.2083 18.0625C43.2083 19.1153 42.3549 19.9688 41.3021 19.9688H17.1563C16.1035 19.9688 15.25 19.1153 15.25 18.0625C15.25 17.0097 16.1035 16.1562 17.1563 16.1562H41.3021C42.3549 16.1562 43.2083 17.0097 43.2083 18.0625Z" fill="#7C40C8"/>
<path fill-rule="evenodd" clip-rule="evenodd" d="M30.5 29.5C30.5 30.5528 29.6465 31.4062 28.5938 31.4062H17.1562C16.1035 31.4062 15.25 30.5528 15.25 29.5C15.25 28.4472 16.1035 27.5938 17.1562 27.5938H28.5938C29.6465 27.5938 30.5 28.4472 30.5 29.5Z" fill="#7C40C8"/>
<path d="M30.5002 57.8229H22.8752C9.07391 57.8229 3.17725 51.9263 3.17725 38.125V22.875C3.17725 9.07376 9.07391 3.17709 22.8752 3.17709H38.1252C51.9264 3.17709 57.8231 9.07376 57.8231 22.875V30.5C57.8231 31.5421 56.9589 32.4063 55.9168 32.4063C54.8747 32.4063 54.0106 31.5421 54.0106 30.5V22.875C54.0106 11.1579 49.8422 6.98959 38.1252 6.98959H22.8752C11.1581 6.98959 6.98975 11.1579 6.98975 22.875V38.125C6.98975 49.8421 11.1581 54.0104 22.8752 54.0104H30.5002C31.5422 54.0104 32.4064 54.8746 32.4064 55.9167C32.4064 56.9588 31.5422 57.8229 30.5002 57.8229Z" fill="#2C2A7E"/>
<path d="M41.6076 57.8738C41.5822 57.8738 41.5822 57.8738 41.5567 57.8738C38.9897 57.8483 36.8547 56.2726 36.0922 53.8071L31.3901 38.6842C30.7547 36.6 31.2884 34.3633 32.8388 32.8638C34.3638 31.3642 36.5751 30.805 38.6084 31.4404L53.7568 36.1425C56.1967 36.905 57.798 39.04 57.8234 41.6071C57.8488 44.1488 56.2984 46.3092 53.8584 47.1226L49.7155 48.5204C49.1309 48.7238 48.6734 49.1559 48.4955 49.7405L47.0722 53.9088C46.2842 56.3233 44.1492 57.8738 41.6076 57.8738ZM36.8801 34.9988C36.1938 34.9988 35.7363 35.38 35.533 35.5579C34.9992 36.0917 34.8213 36.8288 35.0501 37.5659L39.7522 52.6888C40.1588 53.9851 41.2263 54.0358 41.633 54.0613C41.9888 54.0613 43.0817 53.9596 43.4884 52.7142L44.9117 48.5459C45.4709 46.843 46.8434 45.4959 48.5463 44.9113L52.6893 43.5134C53.9601 43.1067 54.0363 41.9884 54.0363 41.658C54.0363 41.3276 53.9347 40.2092 52.6638 39.8025L37.5155 35.1004C37.2613 35.0242 37.058 34.9988 36.8801 34.9988Z" fill="#7C40C8"/>
</svg>
