<svg width="61" height="62" viewBox="0 0 61 62" fill="none" xmlns="http://www.w3.org/2000/svg">
<path d="M50.2488 35.5208H39.9804C34.8717 35.5208 32.4062 33.1183 32.4062 28.1583V10.5916C32.4062 5.63163 34.8971 3.22913 39.9804 3.22913H50.2488C55.3575 3.22913 57.8229 5.63163 57.8229 10.5916V28.1583C57.8229 33.1183 55.3321 35.5208 50.2488 35.5208ZM39.9804 7.10413C36.7525 7.10413 36.2188 7.98246 36.2188 10.5916V28.1583C36.2188 30.7675 36.7525 31.6458 39.9804 31.6458H50.2488C53.4767 31.6458 54.0104 30.7675 54.0104 28.1583V10.5916C54.0104 7.98246 53.4767 7.10413 50.2488 7.10413H39.9804Z" fill="#2C2A7E"/>
<path d="M50.2488 58.7709H39.9804C34.8717 58.7709 32.4062 56.3684 32.4062 51.4084V46.7584C32.4062 41.7984 34.8971 39.3959 39.9804 39.3959H50.2488C55.3575 39.3959 57.8229 41.7984 57.8229 46.7584V51.4084C57.8229 56.3684 55.3321 58.7709 50.2488 58.7709ZM39.9804 43.2709C36.7525 43.2709 36.2188 44.1492 36.2188 46.7584V51.4084C36.2188 54.0175 36.7525 54.8959 39.9804 54.8959H50.2488C53.4767 54.8959 54.0104 54.0175 54.0104 51.4084V46.7584C54.0104 44.1492 53.4767 43.2709 50.2488 43.2709H39.9804Z" fill="#7C40C8"/>
<path d="M21.0197 58.7708H10.7514C5.64266 58.7708 3.17725 56.3683 3.17725 51.4083V33.8416C3.17725 28.8816 5.66808 26.4791 10.7514 26.4791H21.0197C26.1285 26.4791 28.5939 28.8816 28.5939 33.8416V51.4083C28.5939 56.3683 26.1031 58.7708 21.0197 58.7708ZM10.7514 30.3541C7.5235 30.3541 6.98975 31.2325 6.98975 33.8416V51.4083C6.98975 54.0175 7.5235 54.8958 10.7514 54.8958H21.0197C24.2477 54.8958 24.7814 54.0175 24.7814 51.4083V33.8416C24.7814 31.2325 24.2477 30.3541 21.0197 30.3541H10.7514Z" fill="#2C2A7E"/>
<path d="M21.0197 22.6041H10.7514C5.64266 22.6041 3.17725 20.2016 3.17725 15.2416V10.5916C3.17725 5.63163 5.66808 3.22913 10.7514 3.22913H21.0197C26.1285 3.22913 28.5939 5.63163 28.5939 10.5916V15.2416C28.5939 20.2016 26.1031 22.6041 21.0197 22.6041ZM10.7514 7.10413C7.5235 7.10413 6.98975 7.98246 6.98975 10.5916V15.2416C6.98975 17.8508 7.5235 18.7291 10.7514 18.7291H21.0197C24.2477 18.7291 24.7814 17.8508 24.7814 15.2416V10.5916C24.7814 7.98246 24.2477 7.10413 21.0197 7.10413H10.7514Z" fill="#7C40C8"/>
</svg>
