<svg width="61" height="62" viewBox="0 0 61 62" fill="none" xmlns="http://www.w3.org/2000/svg">
<path d="M50.2488 29.0626H39.9804C34.8717 29.0626 32.4062 26.7634 32.4062 22.0101V10.2817C32.4062 5.52841 34.8971 3.22925 39.9804 3.22925H50.2488C55.3575 3.22925 57.8229 5.52841 57.8229 10.2817V21.9842C57.8229 26.7634 55.3321 29.0626 50.2488 29.0626ZM39.9804 7.10425C36.5746 7.10425 36.2188 8.08592 36.2188 10.2817V21.9842C36.2188 24.2059 36.5746 25.1617 39.9804 25.1617H50.2488C53.6546 25.1617 54.0104 24.1801 54.0104 21.9842V10.2817C54.0104 8.06008 53.6546 7.10425 50.2488 7.10425H39.9804Z" fill="#2C2A7E"/>
<path d="M50.2488 58.7708H39.9804C34.8717 58.7708 32.4062 56.2392 32.4062 51.0725V40.6358C32.4062 35.4433 34.8971 32.9375 39.9804 32.9375H50.2488C55.3575 32.9375 57.8229 35.4692 57.8229 40.6358V51.0725C57.8229 56.2392 55.3321 58.7708 50.2488 58.7708ZM39.9804 36.8125C36.9812 36.8125 36.2188 37.5875 36.2188 40.6358V51.0725C36.2188 54.1208 36.9812 54.8958 39.9804 54.8958H50.2488C53.2479 54.8958 54.0104 54.1208 54.0104 51.0725V40.6358C54.0104 37.5875 53.2479 36.8125 50.2488 36.8125H39.9804Z" fill="#7C40C8"/>
<path d="M21.0193 29.0626H10.7509C5.64217 29.0626 3.17676 26.7634 3.17676 22.0101V10.2817C3.17676 5.52841 5.66759 3.22925 10.7509 3.22925H21.0193C26.128 3.22925 28.5934 5.52841 28.5934 10.2817V21.9842C28.5934 26.7634 26.1026 29.0626 21.0193 29.0626ZM10.7509 7.10425C7.34509 7.10425 6.98926 8.08592 6.98926 10.2817V21.9842C6.98926 24.2059 7.34509 25.1617 10.7509 25.1617H21.0193C24.4251 25.1617 24.7809 24.1801 24.7809 21.9842V10.2817C24.7809 8.06008 24.4251 7.10425 21.0193 7.10425H10.7509Z" fill="#2C2A7E"/>
<path d="M21.0193 58.7708H10.7509C5.64217 58.7708 3.17676 56.2392 3.17676 51.0725V40.6358C3.17676 35.4433 5.66759 32.9375 10.7509 32.9375H21.0193C26.128 32.9375 28.5934 35.4692 28.5934 40.6358V51.0725C28.5934 56.2392 26.1026 58.7708 21.0193 58.7708ZM10.7509 36.8125C7.75176 36.8125 6.98926 37.5875 6.98926 40.6358V51.0725C6.98926 54.1208 7.75176 54.8958 10.7509 54.8958H21.0193C24.0184 54.8958 24.7809 54.1208 24.7809 51.0725V40.6358C24.7809 37.5875 24.0184 36.8125 21.0193 36.8125H10.7509Z" fill="#2C2A7E"/>
</svg>
