<svg width="28" height="28" viewBox="0 0 28 28" fill="none" xmlns="http://www.w3.org/2000/svg">
<g filter="url(#filter0_b_2732_1498)">
<circle cx="14" cy="14" r="14" fill="#D9D9D9" fill-opacity="0.37"/>
</g>
<path d="M12.473 5.88516L12.473 5.88516C13.6678 5.87203 14.9211 5.8712 16.1165 5.88516L16.1165 5.88516C16.5447 5.89019 16.8967 5.94788 17.1973 6.10824C17.4967 6.26797 17.7317 6.52229 17.9421 6.89566C17.9463 6.90005 17.9522 6.90589 17.9594 6.91307C17.9761 6.92959 17.9979 6.95064 18.0205 6.97249L18.0223 6.97425C18.0452 6.99639 18.0688 7.01925 18.0871 7.03746C18.0962 7.04649 18.1048 7.0551 18.1116 7.06224C18.1149 7.06574 18.1187 7.06974 18.1221 7.07372L18.1223 7.07385C18.1235 7.07524 18.1332 7.08617 18.1409 7.1002L18.1414 7.10114C18.1698 7.1542 18.1956 7.20735 18.2197 7.2569C18.2224 7.26263 18.2252 7.26831 18.2279 7.27393C18.2549 7.32925 18.2797 7.37955 18.3061 7.42593C18.3588 7.51866 18.4119 7.58551 18.4812 7.62936C18.5341 7.66279 18.5789 7.66509 18.655 7.65245C18.6713 7.64975 18.6898 7.64604 18.7105 7.64193C18.7835 7.62735 18.882 7.60769 18.9918 7.61002L12.473 5.88516ZM12.473 5.88516C11.5797 5.8951 10.8772 6.31664 10.4486 7.10005L12.473 5.88516ZM20.3309 21.8504H20.3309C18.9752 21.8542 17.6021 21.8529 16.2351 21.8516C15.5539 21.851 14.8742 21.8504 14.1989 21.8504C13.5332 21.8504 12.8718 21.8505 12.2118 21.8505C10.8961 21.8507 9.58608 21.8509 8.25889 21.8504C7.25815 21.8499 6.41097 21.5124 5.81346 20.9152C5.21593 20.318 4.87738 19.4704 4.87654 18.4674C4.87449 16.0401 4.87449 13.6119 4.87654 11.1846C4.87823 9.17832 6.23158 7.61385 8.25868 7.61C8.4107 7.60968 8.55921 7.60912 8.70605 7.60857C9.13144 7.60697 9.54279 7.60542 9.98475 7.61C10.0313 7.61048 10.0799 7.62134 10.1175 7.63052C10.1316 7.63396 10.1445 7.63725 10.1566 7.64033C10.1816 7.6467 10.2033 7.65223 10.2258 7.65662C10.2416 7.65971 10.2534 7.66121 10.2618 7.66185C10.2895 7.59258 10.3072 7.5228 10.327 7.44452C10.3296 7.43434 10.3322 7.42401 10.3349 7.41352L20.3309 21.8504ZM20.3309 21.8504C22.1715 21.8449 23.6958 20.521 23.7129 18.6601C23.7363 16.1184 23.7351 13.534 23.7129 10.992C23.6988 9.33878 22.5535 8.02162 20.922 7.80276C20.922 7.80276 20.922 7.80276 20.922 7.80275L20.8786 7.79693M20.3309 21.8504L20.8786 7.79693M20.1386 20.8338H20.1387C20.2274 20.8336 20.3491 20.8031 20.488 20.7606C20.5235 20.7498 20.5604 20.7381 20.5975 20.7262C20.696 20.6949 20.7966 20.6629 20.8787 20.645C21.415 20.5279 21.8179 20.2679 22.0882 19.9007C22.3593 19.5322 22.5039 19.0463 22.5048 18.4671C22.5089 16.0398 22.5069 13.6337 22.5049 11.2062L22.5048 11.1848V11.1847C22.5048 11.1289 22.5082 11.0619 22.5115 10.9956C22.5133 10.96 22.5151 10.9246 22.5163 10.8913C22.5201 10.7893 22.5194 10.6995 22.507 10.6327C22.4022 10.0729 22.1494 9.62381 21.7814 9.31319C21.4136 9.0027 20.9226 8.82375 20.3294 8.81824C20.3293 8.81824 20.3293 8.81823 20.3293 8.81823L20.3305 8.69324L20.1386 20.8338ZM20.1386 20.8338C18.8244 20.8365 17.4968 20.8356 16.1736 20.8347C15.5136 20.8342 14.8546 20.8338 14.1989 20.8338C13.5363 20.8338 12.8756 20.8341 12.2156 20.8344C10.8974 20.835 9.58183 20.8357 8.25916 20.8338C7.14365 20.8318 6.34172 20.2041 6.08056 19.2024L20.1386 20.8338ZM20.8786 7.79693C20.3038 7.71972 19.5778 7.62221 18.9919 7.61002L20.8786 7.79693ZM17.611 8.70077C17.73 8.78253 17.8714 8.82059 18.0329 8.81823L6.00837 18.9653C5.99204 18.9148 5.97579 18.8646 5.96162 18.8176C5.92142 18.6843 5.89316 18.5641 5.89299 18.4671L5.89299 18.467C5.88724 16.0326 5.88888 13.6195 5.89299 11.1849C5.89533 9.83524 6.9055 8.83661 8.26064 8.81823C8.98174 8.80881 9.64386 8.80922 10.3651 8.81823L10.3651 8.81823C10.5232 8.82016 10.6642 8.77906 10.7832 8.69765C10.9013 8.6168 10.9909 8.50076 11.0549 8.36246L11.055 8.36234C11.1534 8.14923 11.2353 7.99034 11.3309 7.80495C11.364 7.74093 11.3986 7.67374 11.4361 7.60007L11.4362 7.6C11.6395 7.20005 12.0509 6.90538 12.4755 6.90175L12.4755 6.90175C13.6688 6.89109 14.9208 6.89027 16.1138 6.90175L16.1139 6.90175C16.5173 6.90554 16.7455 7.17279 16.9616 7.59979L16.9616 7.59983C17.0038 7.68325 17.0433 7.75945 17.0812 7.83265C17.1714 8.00694 17.2528 8.16425 17.3425 8.36165L17.3426 8.36173C17.4065 8.50232 17.493 8.61972 17.611 8.70077Z" fill="white" stroke="white" stroke-width="0.25"/>
<path d="M9.67117 14.4404L9.67117 14.4404C9.69979 17.1264 11.7336 19.205 14.401 19.167L14.4011 19.167C17.039 19.1291 19.1455 17.0894 19.1274 14.4382C19.1093 11.7872 17.0539 9.6846 14.398 9.71119C11.7505 9.73771 9.64331 11.8084 9.67117 14.4404ZM17.9184 14.4388L17.9184 14.4388C17.9132 16.4095 16.3726 17.9597 14.3994 17.9581C12.3822 17.9565 10.6864 16.4233 10.6883 14.4392C10.6903 12.4297 12.3921 10.722 14.3989 10.7283C16.3794 10.7347 17.924 12.4271 17.9184 14.4388Z" fill="white" stroke="white" stroke-width="0.25"/>
<defs>
<filter id="filter0_b_2732_1498" x="-4" y="-4" width="36" height="36" filterUnits="userSpaceOnUse" color-interpolation-filters="sRGB">
<feFlood flood-opacity="0" result="BackgroundImageFix"/>
<feGaussianBlur in="BackgroundImageFix" stdDeviation="2"/>
<feComposite in2="SourceAlpha" operator="in" result="effect1_backgroundBlur_2732_1498"/>
<feBlend mode="normal" in="SourceGraphic" in2="effect1_backgroundBlur_2732_1498" result="shape"/>
</filter>
</defs>
</svg>
