<svg width="28" height="28" viewBox="0 0 28 28" fill="none" xmlns="http://www.w3.org/2000/svg">
<g filter="url(#filter0_b_2777_1400)">
<circle cx="14" cy="14" r="14" fill="#D9D9D9" fill-opacity="0.37"/>
</g>
<path d="M14.1989 21.7254C12.206 21.7254 10.2518 21.7262 8.25894 21.7254C6.31485 21.7245 5.00318 20.4159 5.00154 18.4673C4.99949 16.04 4.99949 13.612 5.00154 11.1847C5.00318 9.23775 6.30993 7.73869 8.25894 7.735C8.85242 7.73377 9.38997 7.72884 9.98345 7.735C10.1061 7.73623 10.3154 7.85191 10.3667 7.735C10.4516 7.54014 10.4562 7.3467 10.5583 7.16005C10.9652 6.41631 11.6262 6.01959 12.4744 6.01016C13.6683 5.99703 14.9207 5.99621 16.115 6.01016C16.9534 6.02 17.431 6.23656 17.8395 6.9684C17.8469 6.98153 18.0238 7.14651 18.0312 7.16005C18.1521 7.38649 18.2257 7.61562 18.4144 7.735C18.5948 7.84904 18.7386 7.72966 18.9892 7.735C19.5815 7.7473 20.3217 7.84829 20.9053 7.92665C22.4741 8.13709 23.5744 9.40095 23.5879 10.993C23.6101 13.5344 23.6113 16.1181 23.5879 18.659C23.5715 20.4426 22.1118 21.72 20.3305 21.7254C18.2995 21.7311 16.23 21.7254 14.1989 21.7254V21.7254ZM14.1989 20.9588C16.1688 20.9588 18.169 20.9629 20.1389 20.9588C20.3583 20.9584 20.6925 20.8135 20.9053 20.7671C22.0308 20.5214 22.6278 19.6664 22.6298 18.4673C22.6339 16.0327 22.6319 13.6194 22.6298 11.1847C22.6298 11.0181 22.6602 10.773 22.6298 10.6097C22.4112 9.44141 21.5675 8.70473 20.3305 8.69324C19.6156 8.68668 18.7456 8.68299 18.0312 8.69324C17.751 8.69734 17.5712 8.56223 17.4563 8.30994C17.3275 8.02648 17.2138 7.82107 17.0731 7.54335C16.8537 7.10974 16.5945 6.78126 16.115 6.77675C14.9211 6.76526 13.6683 6.76609 12.4744 6.77675C11.9945 6.78085 11.545 7.11015 11.3247 7.54335C11.18 7.82763 11.0752 8.02032 10.9415 8.30994C10.8283 8.55444 10.6357 8.69652 10.3667 8.69324C9.64441 8.68422 8.98121 8.68381 8.25894 8.69324C6.83738 8.71252 5.77045 9.76489 5.76799 11.1847C5.76388 13.6194 5.76224 16.0327 5.76799 18.4673C5.7684 18.7008 5.90095 19.0087 5.9596 19.2339C6.23563 20.2927 7.0888 20.9567 8.25894 20.9588C10.244 20.9616 12.2134 20.9588 14.1989 20.9588V20.9588Z" fill="white"/>
<path d="M9.79616 14.4391C9.76907 11.8791 11.8178 9.86204 14.3993 9.83618C16.9832 9.81032 18.9847 11.8544 19.0024 14.4391C19.02 17.018 16.9721 19.0051 14.3993 19.042C11.8047 19.079 9.82408 17.0595 9.79616 14.4391ZM14.3993 18.0831C16.4421 18.0847 18.0381 16.4782 18.0434 14.4391C18.0491 12.3655 16.4557 10.6099 14.3993 10.6033C12.3228 10.5968 10.5654 12.361 10.5633 14.4391C10.5613 16.5003 12.3215 18.0814 14.3993 18.0831V18.0831Z" fill="white"/>
<defs>
<filter id="filter0_b_2777_1400" x="-4" y="-4" width="36" height="36" filterUnits="userSpaceOnUse" color-interpolation-filters="sRGB">
<feFlood flood-opacity="0" result="BackgroundImageFix"/>
<feGaussianBlur in="BackgroundImageFix" stdDeviation="2"/>
<feComposite in2="SourceAlpha" operator="in" result="effect1_backgroundBlur_2777_1400"/>
<feBlend mode="normal" in="SourceGraphic" in2="effect1_backgroundBlur_2777_1400" result="shape"/>
</filter>
</defs>
</svg>
