<svg width="11" height="11" viewBox="0 0 11 11" fill="none" xmlns="http://www.w3.org/2000/svg">
<path d="M8.92649 0.194521C8.80189 0.0699694 8.63292 0 8.45674 0C8.28056 0 8.11159 0.0699694 7.987 0.194521L7.04751 1.13462L9.86598 3.95292L10.8055 3.01349C10.93 2.8889 11 2.71994 11 2.54377C11 2.3676 10.93 2.19864 10.8055 2.07405L8.92649 0.194521ZM8.92649 4.89302L6.10735 2.07405L0.194011 7.98704C0.0698056 8.11155 3.73656e-05 8.28022 0 8.45609V10.3356C0 10.5118 0.0700013 10.6808 0.194604 10.8054C0.319207 10.93 0.488205 11 0.66442 11H2.5434C2.7196 11 2.88857 10.9299 3.01315 10.8053L8.92649 4.89235V4.89302Z" fill="#626262"/>
</svg>
