<svg width="58" height="65" viewBox="0 0 58 65" fill="none" xmlns="http://www.w3.org/2000/svg">
<path d="M38.8211 46.9999C36.5226 46.9999 34.6003 45.1999 34.6003 42.9999C34.6003 40.7999 36.439 38.9999 38.7375 38.9999H38.8211C41.1195 38.9999 43 40.7999 43 42.9999C43 45.1999 41.1195 46.9999 38.8211 46.9999Z" fill="#7C40C8"/>
<path d="M19.2207 46.9999C16.9223 46.9999 15 45.1999 15 42.9999C15 40.7999 16.8387 38.9999 19.1372 38.9999H19.2207C21.5192 38.9999 23.3997 40.7999 23.3997 42.9999C23.3997 45.1999 21.5192 46.9999 19.2207 46.9999Z" fill="#7C40C8"/>
<path d="M37.093 64.9999H20.907C6.25861 64.9999 0 58.6365 0 43.7427V38.257C0 23.3633 6.25861 16.9999 20.907 16.9999H37.093C51.7414 16.9999 58 23.3633 58 38.257V43.7427C58 58.6365 51.7414 64.9999 37.093 64.9999ZM20.907 21.1142C8.4707 21.1142 4.04651 25.6124 4.04651 38.257V43.7427C4.04651 56.3873 8.4707 60.8856 20.907 60.8856H37.093C49.5293 60.8856 53.9535 56.3873 53.9535 43.7427V38.257C53.9535 25.6124 49.5293 21.1142 37.093 21.1142H20.907Z" fill="#2C2A7E"/>
<path d="M27 11H30V19H27V11Z" fill="#2C2A7E"/>
<path d="M28 14C24.1309 14 21 10.8691 21 7C21 3.13091 24.1309 0 28 0C31.8691 0 35 3.13091 35 7C35 10.8691 31.8691 14 28 14ZM28 3.81818C26.2436 3.81818 24.8182 5.24364 24.8182 7C24.8182 8.75636 26.2436 10.1818 28 10.1818C29.7564 10.1818 31.1818 8.75636 31.1818 7C31.1818 5.24364 29.7564 3.81818 28 3.81818Z" fill="#7C40C8"/>
</svg>
