<svg width="22" height="22" viewBox="0 0 22 22" fill="none" xmlns="http://www.w3.org/2000/svg">
<path fill-rule="evenodd" clip-rule="evenodd" d="M5.59846 1.58558C5.68474 1.10626 6.12108 0.755859 6.63169 0.755859H14.8084C15.3191 0.755859 15.7554 1.10626 15.8417 1.58558L16.4707 5.08006L14.4042 5.41746L13.9246 2.7527H7.51558L7.03594 5.41746L4.96948 5.08006L5.59846 1.58558Z" fill="white"/>
<path fill-rule="evenodd" clip-rule="evenodd" d="M0.236206 5.24452C0.236206 4.6931 0.705547 4.24609 1.28451 4.24609H20.1539C20.7329 4.24609 21.2022 4.6931 21.2022 5.24452C21.2022 5.79593 20.7329 6.24294 20.1539 6.24294H1.28451C0.705547 6.24294 0.236206 5.79593 0.236206 5.24452Z" fill="white"/>
<path fill-rule="evenodd" clip-rule="evenodd" d="M3.14049 4.56163C3.33866 4.36031 3.61549 4.24609 3.90524 4.24609H17.5332C17.8229 4.24609 18.0997 4.36031 18.2979 4.56163C18.4961 4.76295 18.5979 5.03341 18.5793 5.3088L17.531 20.7843C17.4954 21.3097 17.0376 21.7185 16.4849 21.7185H4.95354C4.40078 21.7185 3.943 21.3097 3.90741 20.7843L2.85911 5.3088C2.84046 5.03341 2.94231 4.76295 3.14049 4.56163ZM5.02335 6.24294L5.93639 19.7216H15.502L16.4151 6.24294H5.02335Z" fill="white"/>
</svg>
